<?xml version="1.0" standalone="no"?>
  <!DOCTYPE svg PUBLIC "-//W3C//DTD SVG 1.1//EN" "http://www.w3.org/Graphics/SVG/1.1/DTD/svg11.dtd" >
  <svg>
  <metadata>
  Created by font-carrier
  </metadata>
  <defs>
  <font id="Oswald-Heavy" horiz-adv-x="4096" vert-adv-y="4096" >
    <font-face
      
      font-family="Oswald"
      
      font-weight="400"
      
      font-stretch="normal"
      
      units-per-em="2048"
      
      ascent="2233"
      
      descent="-548"
      
    />
      <missing-glyph />

      

      
      <glyph glyph-name="uni21" unicode="&#x21;" d="M203 442L100 1652L464 1652L330 442L203 442M92 0L92 336L434 336L434 0L92 0Z"  horiz-adv-x="556" vert-adv-y="2048"  />

      
      <glyph glyph-name="uni22" unicode="&#x22;" d="M423 1011L423 1658L733 1658L585 1011L423 1011M19 1011L19 1658L328 1658L181 1011L19 1011Z"  horiz-adv-x="710" vert-adv-y="2048"  />

      
      <glyph glyph-name="uni23" unicode="&#x23;" d="M467 758L622 758L651 1008L497 1008L467 758M167-1L226 539L105 539L112 758L257 758L283 1008L115 1008L121 1232L325 1232L369 1658L584 1658L539 1232L691 1232L735 1658L949 1658L903 1232L1017 1232L1010 1008L862 1008L835 758L1007 758L1000 539L804 539L743-1L533-1L591 539L438 539L378-1L167-1Z"  horiz-adv-x="1122" vert-adv-y="2048"  />

      
      <glyph glyph-name="uni24" unicode="&#x24;" d="M466-244L466-24Q249-12 145 113Q41 238 34 512L379 557Q379 475 387.50 419Q396 363 413 333.50Q430 304 449.50 292Q469 280 495 280Q563 280 563 378Q563 474 519.50 543Q476 612 380 694L276 783Q218 833 182 870.50Q146 908 108 963.50Q70 1019 52 1086Q34 1153 34 1235Q34 1431 147 1546.50Q260 1662 457 1680L457 1891L572 1891L572 1682Q643 1677 699.50 1656Q756 1635 793 1605.50Q830 1576 857 1532.50Q884 1489 898 1450Q912 1411 920.50 1360.50Q929 1310 931 1276Q933 1242 933 1200L580 1165Q580 1210 579.50 1232.50Q579 1255 577 1286.50Q575 1318 570.50 1332.50Q566 1347 558 1363Q550 1379 537.50 1385Q525 1391 507 1391Q469 1390 450 1352Q431 1314 431 1275Q431 1254 434.50 1234Q438 1214 441 1198.50Q444 1183 454 1164.50Q464 1146 469 1135Q474 1124 489 1106Q504 1088 509 1081Q514 1074 533 1056Q552 1038 556 1034.50Q560 1031 582 1011.50Q604 992 606 990L702 905Q763 850 805.50 802Q848 754 887 691.50Q926 629 945.50 555.50Q965 482 965 397Q965 232 860 114Q755-4 579-23L579-244L466-244Z"  horiz-adv-x="990" vert-adv-y="2048"  />

      
      <glyph glyph-name="uni25" unicode="&#x25;" d="M706 0L1231 1658L1416 1658L890 0L706 0M1935 109.50Q1935 109.50 1887.50 54.75Q1840 0 1620 0Q1400 0 1307 109Q1214 218 1214 456L1214 515Q1214 756 1304.50 858Q1395 960 1620 960Q1844 960 1937 858Q2030 756 2030 517L2030 456Q2030 219 1935 109.50M1575 233Q1575 233 1584.50 230Q1594 227 1620 227Q1646 227 1665 233Q1684 239 1696 255Q1708 271 1715 287.50Q1722 304 1725 336.50Q1728 369 1729 397Q1730 425 1730 474L1730 500Q1730 502 1730 504Q1730 540 1730 556.50Q1730 573 1729 599.50Q1728 626 1726 637.50Q1724 649 1720.50 667Q1717 685 1711 692Q1705 699 1697 709Q1689 719 1678 722Q1667 725 1652.50 728Q1638 731 1620 731Q1593 731 1574 726.50Q1555 722 1542.50 708Q1530 694 1523.50 680.50Q1517 667 1513.50 635Q1510 603 1509.50 578Q1509 553 1509 502L1509 474Q1509 425 1510 397Q1511 369 1514.50 336.50Q1518 304 1525 287Q1532 270 1544 254.50Q1556 239 1575 233M504 698Q284 698 191 807.50Q98 917 98 1155L98 1213Q98 1454 188.50 1556Q279 1658 504 1658Q729 1658 821.50 1556.50Q914 1455 914 1215L914 1154Q914 917 819.50 807.50Q725 698 504 698M459 931Q459 931 468.50 928Q478 925 504 925Q530 925 549 931Q568 937 580 952.50Q592 968 599 985Q606 1002 609.50 1034.50Q613 1067 614 1095.50Q615 1124 615 1173L615 1199Q615 1252 614.50 1275.50Q614 1299 611 1332Q608 1365 601.50 1378Q595 1391 582.50 1405.50Q570 1420 551 1424.50Q532 1429 504 1429Q477 1429 458 1424.50Q439 1420 427 1406Q415 1392 408 1378.50Q401 1365 398 1333Q395 1301 394.50 1276.50Q394 1252 394 1200L394 1172Q394 1123 395 1095Q396 1067 399 1034.50Q402 1002 409 985.50Q416 969 428 953Q440 937 459 931Z"  horiz-adv-x="2127" vert-adv-y="2048"  />

      
      <glyph glyph-name="uni26" unicode="&#x26;" d="M495 1030Q499 1040 520 1090.50Q541 1141 555 1177.50Q569 1214 582.50 1262Q596 1310 596 1341Q596 1384 570 1409.50Q544 1435 509 1435Q474 1435 449.50 1409Q425 1383 425 1336Q425 1283 459.50 1160Q494 1037 495 1030M463 208Q490 208 508 210.50Q526 213 550.50 226.50Q575 240 594 266Q449 597 426 653Q346 515 346 397Q346 312 384 260Q422 208 463 208M456-29Q288-29 179 82Q70 193 70 366Q70 505 137 651.50Q204 798 302 897Q283 937 247 1006Q211 1075 191.50 1114.50Q172 1154 155.50 1209.50Q139 1265 139 1315Q139 1471 235.50 1578.50Q332 1686 491 1686Q654 1686 760 1586.50Q866 1487 866 1320Q866 1264 852.50 1211Q839 1158 821 1119.50Q803 1081 771 1037Q739 993 715.50 967Q692 941 652.50 899.50Q613 858 594 837L772 482Q796 520 811.50 630Q827 740 828 831L1055 831Q1055 644 1028 525.50Q1001 407 941 284Q959 261 995 243.50Q1031 226 1068 222L1068-24Q1020-35 1001-35Q959-35 912.50-12.50Q866 10 835.50 34Q805 58 764 94Q755 102 751 106Q698 40 620.50 5.50Q543-29 456-29Z"  horiz-adv-x="1145" vert-adv-y="2048"  />

      
      <glyph glyph-name="uni27" unicode="&#x27;" d="M60 1011L60 1658L354 1658L234 1011L60 1011Z"  horiz-adv-x="376" vert-adv-y="2048"  />

      
      <glyph glyph-name="uni28" unicode="&#x28;" d="M641-356Q638-356 634-356Q540-356 465-328Q387-300 333-252.50Q279-205 239.50-128.50Q200-52 177.50 28Q155 108 142 218Q129 328 125 426Q121 524 121 651Q121 757 123.50 840.50Q126 924 133 1015.50Q140 1107 151.50 1177.50Q163 1248 183.50 1319.50Q204 1391 231.50 1443Q259 1495 298 1542Q337 1589 386 1617.50Q435 1646 499.50 1662Q564 1678 641 1678L641 1419Q536 1419 496.50 1243.50Q457 1068 457 651Q457 375 475.50 212.50Q494 50 534-23.50Q574-97 641-97L641-356Z"  horiz-adv-x="716" vert-adv-y="2048"  />

      
      <glyph glyph-name="uni29" unicode="&#x29;" d="M75-356L75-97Q142-97 182-23.50Q222 50 240.50 212.50Q259 375 259 651Q259 1068 219.50 1243.50Q180 1419 75 1419L75 1678Q152 1678 216.50 1662Q281 1646 330 1617.50Q379 1589 418 1542.50Q457 1496 484.50 1444Q512 1392 532.50 1320Q553 1248 564.50 1178Q576 1108 583 1016Q590 924 592.50 840.50Q595 757 595 651Q595 524 591 426Q587 328 574 218Q561 108 538.50 28Q516-52 476.50-128.50Q437-205 383-252.50Q329-300 251-328Q176-356 82-356Q78-356 75-356Z"  horiz-adv-x="713" vert-adv-y="2048"  />

      
      <glyph glyph-name="uni2a" unicode="&#x2a;" d="M363 911L148 1038L290 1241L77 1323L158 1539L348 1434L321 1658L594 1658L569 1432L759 1540L840 1321L625 1239L771 1039L553 911L457 1117L363 911Z"  horiz-adv-x="880" vert-adv-y="2048"  />

      
      <glyph glyph-name="uni2b" unicode="&#x2b;" d="M351 422L351 748L54 748L54 951L351 951L351 1266L587 1266L587 951L885 951L885 748L587 748L587 422L351 422Z"  horiz-adv-x="939" vert-adv-y="2048"  />

      
      <glyph glyph-name="uni2c" unicode="&#x2c;" d="M145-290L129-180Q197-165 240-125.50Q283-86 283 0L91 0L91 337L432 337L432 53Q431-113 359-200.50Q287-288 145-290Z"  horiz-adv-x="519" vert-adv-y="2048"  />

      
      <glyph glyph-name="uni2d" unicode="&#x2d;" d="M139 635L139 862L692 862L692 635L139 635Z"  horiz-adv-x="830" vert-adv-y="2048"  />

      
      <glyph glyph-name="uni2e" unicode="&#x2e;" d="M93 0L93 336L437 336L437 0L93 0Z"  horiz-adv-x="533" vert-adv-y="2048"  />

      
      <glyph glyph-name="uni2f" unicode="&#x2f;" d="M97 0L623 1658L799 1658L273 0L97 0Z"  horiz-adv-x="897" vert-adv-y="2048"  />

      
      <glyph glyph-name="uni30" unicode="&#x30;" d="M563-34Q339-34 218.50 93Q98 220 98 436L98 1201Q98 1426 214.50 1556Q331 1686 563 1686Q793 1686 909.50 1555.50Q1026 1425 1026 1201L1026 436Q1026 224 904 95Q782-34 563-34M486 448Q486 307 563 307Q640 307 640 448L640 1188Q640 1189 640 1203.50Q640 1218 640 1224.50Q640 1231 639 1246Q638 1261 636 1269.50Q634 1278 630.50 1291.50Q627 1305 621 1312.50Q615 1320 607.50 1328Q600 1336 588.50 1339.50Q577 1343 563 1343Q545 1343 531 1337.50Q517 1332 509 1319Q501 1306 495.50 1295.50Q490 1285 488 1265.50Q486 1246 486 1238Q486 1234 486 1226Q486 1219 486 1209Q486 1189 486 1188L486 448Z"  horiz-adv-x="1123" vert-adv-y="2048"  />

      
      <glyph glyph-name="uni31" unicode="&#x31;" d="M415 0L415 1306L206 1194L206 1475Q215 1480 264 1509.50Q313 1539 353 1563Q393 1587 436.50 1615.50Q480 1644 496 1658L795 1658L795 0L415 0Z"  horiz-adv-x="1122" vert-adv-y="2048"  />

      
      <glyph glyph-name="uni32" unicode="&#x32;" d="M122 0L122 267L507 864Q516 878 544.50 920.50Q573 963 586.50 985Q600 1007 623 1047.50Q646 1088 657.50 1117Q669 1146 678.50 1182Q688 1218 688 1250Q688 1317 654 1346Q630 1366 598 1366Q584 1366 569 1362Q523 1351 500 1305.50Q477 1260 477 1156L477 1068L113 1068L113 1164Q113 1277 140.50 1369.50Q168 1462 224 1534.50Q280 1607 374.50 1647Q469 1687 594 1687Q822 1687 941.50 1571Q1061 1455 1061 1244Q1061 1210 1057.50 1177Q1054 1144 1043 1109Q1032 1074 1025 1049.50Q1018 1025 997.50 986.50Q977 948 969 930.50Q961 913 933 871Q905 829 898.50 818Q892 807 859 760Q826 713 822 707L541 292L1013 292L1013 0L122 0Z"  horiz-adv-x="1122" vert-adv-y="2048"  />

      
      <glyph glyph-name="uni33" unicode="&#x33;" d="M577-34Q468-34 385.50-7.50Q303 19 250 65Q197 111 164.50 181.50Q132 252 118.50 332Q105 412 105 514L105 573L483 573L483 508Q483 380 504.50 332.50Q526 285 583 285Q636 285 654 328.50Q672 372 672 481Q672 611 639.50 665Q607 719 509 720L439 720L439 960L502 960Q603 960 637.50 1015.50Q672 1071 672 1202Q672 1297 649.50 1341.50Q627 1386 572 1386Q520 1386 501.50 1339.50Q483 1293 483 1201L483 1099L105 1099L105 1212Q105 1441 229 1564Q353 1687 571 1687Q794 1687 919 1571Q1044 1455 1044 1231Q1044 1090 988 988.50Q932 887 851 866Q893 849 926 823Q959 797 986.50 754.50Q1014 712 1029 646Q1044 580 1044 493Q1044 375 1018.50 281Q993 187 939 115Q885 43 793.50 4.50Q702-34 577-34Z"  horiz-adv-x="1121" vert-adv-y="2048"  />

      
      <glyph glyph-name="uni34" unicode="&#x34;" d="M329 624L580 624L580 1309L329 624M580 0L580 366L65 366L65 621L499 1658L910 1658L910 624L1060 624L1060 366L910 366L910 0L580 0Z"  horiz-adv-x="1123" vert-adv-y="2048"  />

      
      <glyph glyph-name="uni35" unicode="&#x35;" d="M569-34Q457-34 376.50-8Q296 18 248 60.50Q200 103 172 173.50Q144 244 135 317Q126 390 126 492L489 492Q489 387 498.50 334Q508 281 530 260Q550 242 586 242Q591 242 597 242Q656 246 670 316.50Q684 387 684 573Q684 633 679.50 677Q675 721 663.50 760Q652 799 629 819.50Q606 840 572 840Q523 840 495 803.50Q467 767 457 684L129 684L167 1658L960 1658L960 1354L465 1354L444 1045Q460 1068 515 1089Q570 1110 635 1118Q664 1122 691 1122Q839 1122 929 1002Q1035 860 1035 578Q1035 495 1030.50 430.50Q1026 366 1013.50 300Q1001 234 979.50 186Q958 138 923 94.50Q888 51 839.50 24Q791-3 723-18.50Q655-34 569-34Z"  horiz-adv-x="1122" vert-adv-y="2048"  />

      
      <glyph glyph-name="uni36" unicode="&#x36;" d="M582 246Q601 246 614.50 252Q628 258 636.50 275Q645 292 650.50 310.50Q656 329 658.50 364.50Q661 400 661.50 432Q662 464 662 520Q662 566 661.50 590.50Q661 615 658.50 647.50Q656 680 650.50 696.50Q645 713 636 730Q627 747 612.50 753.50Q598 760 578 760Q549 760 523.50 742.50Q498 725 488 706L488 430Q488 376 494.50 338.50Q501 301 523 273.50Q545 246 582 246M576-27Q453-27 360.50 13Q268 53 212.50 126.50Q157 200 130 298Q103 396 103 519L103 1130Q103 1234 115 1313.50Q127 1393 158.50 1465Q190 1537 242 1583.50Q294 1630 377.50 1657Q461 1684 574 1684Q698 1684 781.50 1656.50Q865 1629 913.50 1572Q962 1515 982 1438.50Q1002 1362 1002 1252L1002 1221L651 1221Q651 1336 641 1363Q626 1402 577 1403Q515 1403 501.50 1346.50Q488 1290 488 1080L488 963Q510 1002 562.50 1024Q615 1046 681 1048Q688 1048 696 1048Q782 1048 847 1016Q918 980 959.50 912.50Q1001 845 1021 760Q1041 675 1041 571Q1041 458 1028 370Q1015 282 982 205.50Q949 129 897 79Q845 29 764 1Q683-27 576-27Z"  horiz-adv-x="1123" vert-adv-y="2048"  />

      
      <glyph glyph-name="uni37" unicode="&#x37;" d="M237 0L617 1374L162 1374L162 1658L984 1658L984 1386L607 0L237 0Z"  horiz-adv-x="1113" vert-adv-y="2048"  />

      
      <glyph glyph-name="uni38" unicode="&#x38;" d="M560 1001Q642 1001 642 1240Q642 1318 620 1360.50Q598 1403 560 1403Q519 1403 496.50 1360.50Q474 1318 474 1241Q474 1001 560 1001M560 245Q577 245 591.50 251Q606 257 615.50 270.50Q625 284 632 296.50Q639 309 643 331Q647 353 649.50 366.50Q652 380 653 404.50Q654 429 654 438Q654 447 654 469Q655 498 654 527.50Q653 557 651.50 584Q650 611 643.50 634.50Q637 658 627.50 675Q618 692 600.50 702Q583 712 560 712Q537 712 520.50 703.50Q504 695 494 675.50Q484 656 478 638.50Q472 621 469.50 588Q467 555 466.50 535Q466 515 466 476Q466 471 466 469Q466 445 466 432.50Q466 420 468 393Q470 366 473 349.50Q476 333 483 311Q490 289 499.50 276Q509 263 524.50 254Q540 245 560 245M560-29Q433-29 340.50 10Q248 49 194.50 121.50Q141 194 116 288Q93 376 93 485Q93 494 93 502Q96 626 141.50 728Q187 830 280 873Q214 921 169 1011.50Q124 1102 121 1230Q121 1241 121 1251Q121 1450 230 1564Q345 1684 560 1684Q775 1684 888 1564Q995 1451 995 1251Q995 1240 995 1230Q991 1100 947.50 1009Q904 918 839 873Q931 830 978 727.50Q1025 625 1028 502Q1028 488 1028 475Q1028 372 1008 288Q984 194 929.50 121.50Q875 49 781.50 10Q688-29 560-29Z"  horiz-adv-x="1122" vert-adv-y="2048"  />

      
      <glyph glyph-name="uni39" unicode="&#x39;" d="M559 897Q586 897 606.50 913.50Q627 930 638 951L638 1227Q638 1270 635.50 1297.50Q633 1325 625.50 1354Q618 1383 600 1397Q582 1411 554 1411Q535 1411 522 1405Q509 1399 500 1381.50Q491 1364 486.50 1347Q482 1330 479.50 1292.50Q477 1255 476.50 1225Q476 1195 476 1137Q476 1066 477.50 1034Q479 1002 486.50 963.50Q494 925 511.50 911Q529 897 559 897M552-27Q428-27 344.50 0.50Q261 28 213.50 85Q166 142 146 219Q126 296 126 406L126 436L478 436Q478 397 478.50 378Q479 359 481 333.50Q483 308 488 297Q493 286 501.50 274Q510 262 523.50 258Q537 254 556 254Q614 254 626 304Q638 354 638 544Q638 565 638 577L638 694Q615 654 564.50 632.50Q514 611 449 609Q442 609 436 609Q348 610 282 646Q210 686 169.50 757.50Q129 829 109 917.50Q89 1006 89 1110Q89 1249 114 1352.50Q139 1456 193 1531.50Q247 1607 337 1645.50Q427 1684 554 1684Q1026 1684 1026 1162L1026 527Q1026 424 1013.50 344Q1001 264 969 192Q937 120 884.50 73.50Q832 27 748 0Q664-27 552-27Z"  horiz-adv-x="1123" vert-adv-y="2048"  />

      
      <glyph glyph-name="uni3a" unicode="&#x3a;" d="M141 841L141 1175L479 1175L479 841L141 841M141 91L141 425L479 425L479 91L141 91Z"  horiz-adv-x="617" vert-adv-y="2048"  />

      
      <glyph glyph-name="uni3b" unicode="&#x3b;" d="M141 849L141 1183L481 1183L481 849L141 849M196-283L180-173Q212-166 235.50-156Q259-146 283.50-126.50Q308-107 321-74Q334-41 334 5L143 5L143 342L484 342L483 58Q483-108 411-195Q339-282 196-283Z"  horiz-adv-x="624" vert-adv-y="2048"  />

      
      <glyph glyph-name="uni3c" unicode="&#x3c;" d="M713 244L66 696L66 964L713 1418L713 1107L326 832L713 553L713 244Z"  horiz-adv-x="830" vert-adv-y="2048"  />

      
      <glyph glyph-name="uni3d" unicode="&#x3d;" d="M133 883L133 1096L791 1096L791 883L133 883M133 487L133 700L791 700L791 487L133 487Z"  horiz-adv-x="924" vert-adv-y="2048"  />

      
      <glyph glyph-name="uni3e" unicode="&#x3e;" d="M109 244L109 553L497 832L109 1107L109 1418L758 964L758 696L109 244Z"  horiz-adv-x="830" vert-adv-y="2048"  />

      
      <glyph glyph-name="uni3f" unicode="&#x3f;" d="M236 0L236 344L591 344L591 0L236 0M245 442L245 709Q391 825 481 978Q560 1112 560 1245Q560 1264 558 1284Q553 1339 529 1355.50Q505 1372 468 1372Q438 1372 416 1348Q394 1325 394 1285Q394 1262 396 1246Q398 1230 400 1222.50Q402 1215 408.50 1196.50Q415 1178 419 1166L90 1088Q87 1101 79.50 1128.50Q72 1156 70 1165.50Q68 1175 63.50 1195Q59 1215 58 1227.50Q57 1240 55.50 1258.50Q54 1277 54 1297Q54 1301 54 1305Q54 1382 72 1446Q92 1512 136.50 1568.50Q181 1625 262.50 1656Q344 1687 458 1687Q683 1687 802.50 1577Q922 1467 922 1268Q922 1090 821.50 907Q721 724 580 643L580 442L245 442Z"  horiz-adv-x="990" vert-adv-y="2048"  />

      
      <glyph glyph-name="uni40" unicode="&#x40;" d="M984 462L997 462Q1010 462 1025 462Q1040 462 1055.50 465Q1071 468 1078 475L1138 958Q1140 976 1118 984.50Q1096 993 1077 993Q1019 993 973.50 961.50Q928 930 902 879Q876 828 863 773Q850 718 849 662Q849 659 849 657Q849 572 880 518Q912 462 984 462M968-254Q725-254 546-182Q367-110 262 22Q158 156 121 342Q101 441 101 551Q101 650 117 759Q144 953 223.50 1116Q303 1279 429 1400.50Q555 1522 735 1590.50Q915 1659 1131 1659Q1351 1659 1513.50 1593.50Q1676 1528 1770.50 1408Q1865 1288 1901 1125Q1923 1027 1923 916Q1923 842 1913 762Q1907 712 1894.50 660.50Q1882 609 1859.50 553.50Q1837 498 1807.50 448.50Q1778 399 1735.50 353.50Q1693 308 1642.50 275.50Q1592 243 1526 224Q1460 205 1385 205Q1292 205 1211.50 240Q1131 275 1101 346Q1075 296 1020.50 263.50Q966 231 905 226Q888 224 871 224Q777 224 703 272Q616 328 574 432Q538 520 538 627Q538 645 539 663Q543 734 558.50 809.50Q574 885 609.50 967.50Q645 1050 694.50 1113.50Q744 1177 823 1218.50Q902 1260 998 1260Q1108 1260 1153 1101Q1154 1099 1154.50 1098Q1155 1097 1155.50 1095Q1156 1093 1156 1092L1176 1250L1473 1250L1392 605Q1392 603 1390 588.50Q1388 574 1387 566Q1386 558 1384.50 541Q1383 524 1382.50 513Q1382 502 1381.50 486Q1381 470 1383 459.50Q1385 449 1387.50 438Q1390 427 1394.50 420.50Q1399 414 1406 411Q1422 405 1438 405Q1498 406 1562 490Q1644 598 1665 764Q1675 843 1675 913Q1676 988 1664 1052Q1642 1176 1576.50 1267Q1511 1358 1392 1405Q1273 1452 1103 1452Q962 1452 846.50 1414Q731 1376 651.50 1312.50Q572 1249 512.50 1159Q453 1069 420 971.50Q387 874 370 761Q353 639 353 533Q353 512 354 492Q358 368 400 269Q442 170 517.50 101Q593 32 715.50-5Q838-42 1003-42Q1083-42 1209-21.50Q1335-1 1419 29L1456-189Q1162-254 968-254Z"  horiz-adv-x="1973" vert-adv-y="2048"  />

      
      <glyph glyph-name="uni41" unicode="&#x41;" d="M511 565L660 565L585 1184L511 565M46 0L347 1658L819 1658L1117 0L746 0L694 331L479 331L429 0L46 0Z"  horiz-adv-x="1164" vert-adv-y="2048"  />

      
      <glyph glyph-name="uni42" unicode="&#x42;" d="M526 1003L580 1003Q690 1003 728 1053.50Q766 1104 766 1207Q766 1286 719 1338.50Q672 1391 593 1391L526 1391L526 1003M526 283L581 283Q691 283 737 338Q783 393 783 505Q783 639 739 691.50Q695 744 583 744L526 744L526 283M120 0L120 1658L569 1658Q635 1658 688 1654.50Q741 1651 801 1639.50Q861 1628 906 1609Q951 1590 994 1556.50Q1037 1523 1064 1478Q1090 1432 1106 1366Q1120 1308 1120 1237Q1120 1228 1120 1218Q1114 939 877 890Q1018 877 1094.50 775.50Q1171 674 1174 498Q1174 491 1174 483Q1174 234 1042 119Q906 0 651 0L120 0Z"  horiz-adv-x="1244" vert-adv-y="2048"  />

      
      <glyph glyph-name="uni43" unicode="&#x43;" d="M613-26Q471-26 370.50 11.50Q270 49 211.50 123Q153 197 126.50 296Q100 395 100 529L100 1128Q100 1263 126.50 1362Q153 1461 211.50 1535Q270 1609 370.50 1646.50Q471 1684 613 1684Q726 1684 812 1660.50Q898 1637 953.50 1595.50Q1009 1554 1044 1492.50Q1079 1431 1093.50 1361Q1108 1291 1108 1205L1108 1056L709 1056L709 1238Q709 1274 707 1295.50Q705 1317 696.50 1345.50Q688 1374 667 1388.50Q646 1403 613 1403Q586 1403 566.50 1392Q547 1381 537 1366Q527 1351 521.50 1326Q516 1301 514.50 1282Q513 1263 513 1237L513 421Q513 395 514.50 375.50Q516 356 522 331.50Q528 307 538 291.50Q548 276 567.50 265.50Q587 255 613 255Q646 255 667 269.50Q688 284 696.50 313Q705 342 707 363.50Q709 385 709 421L709 611L1108 611L1108 463Q1108 376 1093.50 305.50Q1079 235 1044 172Q1009 109 953.50 66.50Q898 24 812-1Q726-26 613-26Z"  horiz-adv-x="1181" vert-adv-y="2048"  />

      
      <glyph glyph-name="uni44" unicode="&#x44;" d="M120 0L120 1658L557 1658Q728 1658 838.50 1629.50Q949 1601 1015 1535Q1081 1469 1107.50 1372.50Q1134 1276 1134 1129L1134 531Q1134 383 1107.50 286.50Q1081 190 1015 123.50Q949 57 838.50 28.50Q728 0 558 0L120 0M526 280L564 280Q616 280 646.50 288.50Q677 297 692.50 319Q708 341 712.50 367.50Q717 394 717 442L717 1220Q717 1268 712.50 1294Q708 1320 692.50 1341Q677 1362 646.50 1370Q616 1378 564 1378L526 1378L526 280Z"  horiz-adv-x="1234" vert-adv-y="2048"  />

      
      <glyph glyph-name="uni45" unicode="&#x45;" d="M120 0L120 1658L896 1658L896 1386L526 1386L526 1016L802 1016L802 734L526 734L526 271L900 271L900 0L120 0Z"  horiz-adv-x="941" vert-adv-y="2048"  />

      
      <glyph glyph-name="uni46" unicode="&#x46;" d="M120 0L120 1658L861 1658L861 1386L526 1386L526 1007L828 1007L828 725L526 725L526 0L120 0Z"  horiz-adv-x="915" vert-adv-y="2048"  />

      
      <glyph glyph-name="uni47" unicode="&#x47;" d="M564-26Q435-26 343 16Q251 58 199 137Q147 216 123.50 317Q100 418 100 550L100 1108Q100 1243 126.50 1345.50Q153 1448 211.50 1525.50Q270 1603 371 1643.50Q472 1684 614 1684Q727 1684 813.50 1659.50Q900 1635 956 1593Q1012 1551 1048 1488.50Q1084 1426 1099 1355Q1114 1284 1114 1198L1114 1079L715 1079L715 1238Q715 1266 714 1283.50Q713 1301 708 1326.50Q703 1352 693.50 1366.50Q684 1381 665 1392Q646 1403 619 1403Q586 1403 564 1388Q542 1373 532.50 1345.50Q523 1318 520 1293.50Q517 1269 517 1236L517 423Q517 392 522 365.50Q527 339 538.50 313Q550 287 573.50 271.50Q597 256 630 256Q673 256 701.50 284Q730 312 739.50 347.50Q749 383 749 424L749 640L616 640L616 873L1114 873L1114 0L843 0L823 121Q750-26 564-26Z"  horiz-adv-x="1219" vert-adv-y="2048"  />

      
      <glyph glyph-name="uni48" unicode="&#x48;" d="M130 0L130 1658L535 1658L535 1002L742 1002L742 1658L1148 1658L1148 0L742 0L742 711L535 711L535 0L130 0Z"  horiz-adv-x="1278" vert-adv-y="2048"  />

      
      <glyph glyph-name="uni49" unicode="&#x49;" d="M121 0L121 1658L526 1658L526 0L121 0Z"  horiz-adv-x="647" vert-adv-y="2048"  />

      
      <glyph glyph-name="uni4a" unicode="&#x4a;" d="M30-43L30 238Q37 238 44 238Q138 238 176 264Q216 292 217 381L217 1658L623 1658L622 363Q620 258 600.50 186Q581 114 537 60.50Q493 7 417-18Q341-43 228-43L30-43Z"  horiz-adv-x="743" vert-adv-y="2048"  />

      
      <glyph glyph-name="uni4b" unicode="&#x4b;" d="M120 0L120 1658L526 1658L526 1012L777 1658L1176 1658L875 905L1180 0L763 0L547 718L526 692L526 0L120 0Z"  horiz-adv-x="1205" vert-adv-y="2048"  />

      
      <glyph glyph-name="uni4c" unicode="&#x4c;" d="M120 0L120 1658L526 1658L526 271L895 271L895 0L120 0Z"  horiz-adv-x="934" vert-adv-y="2048"  />

      
      <glyph glyph-name="uni4d" unicode="&#x4d;" d="M114 0L141 1658L583 1658L734 805L902 1658L1326 1658L1353 0L1071 0L1039 1075L870 0L611 0L428 1085L401 0L114 0Z"  horiz-adv-x="1468" vert-adv-y="2048"  />

      
      <glyph glyph-name="uni4e" unicode="&#x4e;" d="M120 0L120 1658L408 1658L711 948L711 1658L1046 1658L1046 0L769 0L468 780L468 0L120 0Z"  horiz-adv-x="1167" vert-adv-y="2048"  />

      
      <glyph glyph-name="uni4f" unicode="&#x4f;" d="M854.50 10.50Q854.50 10.50 804.25-7.75Q754-26 612-26Q470-26 370 10.50Q270 47 211 119.50Q152 192 126 290.50Q100 389 100 523L100 1135Q100 1269 126 1367.50Q152 1466 211 1538.50Q270 1611 370 1647.50Q470 1684 612 1684Q754 1684 854.50 1647.50Q955 1611 1014.50 1538.50Q1074 1466 1100.50 1367.50Q1127 1269 1127 1135L1127 523Q1127 389 1100.50 290.50Q1074 192 1014.50 119.50Q955 47 854.50 10.50M612 255Q645 255 666 269.50Q687 284 696 312Q705 340 707.50 363Q710 386 710 420L710 1239Q710 1273 707.50 1296Q705 1319 696 1346.50Q687 1374 666 1388.50Q645 1403 612 1403Q585 1403 566 1392Q547 1381 537.50 1366.50Q528 1352 523 1326.50Q518 1301 517.50 1284.50Q517 1268 517 1239L517 420Q517 392 517.50 375Q518 358 523 332.50Q528 307 537.50 292.50Q547 278 566 266.50Q585 255 612 255Z"  horiz-adv-x="1227" vert-adv-y="2048"  />

      
      <glyph glyph-name="uni50" unicode="&#x50;" d="M526 966L655 966Q737 966 761 1015.50Q785 1065 785 1180Q785 1213 783 1236Q781 1259 773.50 1287Q766 1315 752 1332.50Q738 1350 712.50 1362Q687 1374 651 1374L526 1374L526 966M120 0L120 1658L720 1658Q941 1658 1053 1533Q1165 1408 1165 1171Q1165 1049 1137.50 960Q1110 871 1066.50 819Q1023 767 955 736Q887 705 819.50 695Q752 685 663 685L526 685L526 0L120 0Z"  horiz-adv-x="1223" vert-adv-y="2048"  />

      
      <glyph glyph-name="uni51" unicode="&#x51;" d="M612 255Q645 255 666 269.50Q687 284 696 312Q705 340 707.50 363Q710 386 710 420L710 1239Q710 1273 707.50 1296Q705 1319 696 1346.50Q687 1374 666 1388.50Q645 1403 612 1403Q585 1403 566 1392Q547 1381 537.50 1366.50Q528 1352 523 1326.50Q518 1301 517.50 1284.50Q517 1268 517 1239L517 420Q517 392 517.50 375Q518 358 523 332.50Q528 307 537.50 292.50Q547 278 566 266.50Q585 255 612 255M998-323Q924-294 815.50-207Q707-120 645-25Q640-25 629-25.50Q618-26 612-26Q470-26 370 10.50Q270 47 211 119.50Q152 192 126 290.50Q100 389 100 523L100 1135Q100 1269 126 1367.50Q152 1466 211 1538.50Q270 1611 370 1647.50Q470 1684 612 1684Q754 1684 854.50 1647.50Q955 1611 1014.50 1538.50Q1074 1466 1100.50 1367.50Q1127 1269 1127 1135L1127 523Q1127 157 916 40Q1012-60 1086-96L998-323Z"  horiz-adv-x="1227" vert-adv-y="2048"  />

      
      <glyph glyph-name="uni52" unicode="&#x52;" d="M526 956L632 956Q732 956 770.50 1013.50Q809 1071 809 1177Q809 1279 772.50 1334.50Q736 1390 652 1390L526 1390L526 956M120 0L120 1658L615 1658Q721 1658 802.50 1647Q884 1636 958.50 1607Q1033 1578 1080.50 1529.50Q1128 1481 1156 1403.50Q1184 1326 1184 1221Q1184 1054 1142 955Q1100 856 981 794L1207 0L782 0L610 733L526 733L526 0L120 0Z"  horiz-adv-x="1277" vert-adv-y="2048"  />

      
      <glyph glyph-name="uni53" unicode="&#x53;" d="M575-26Q329-26 212.50 98Q96 222 89 512L433 557Q433 475 442 419Q451 363 468 333.50Q485 304 504.50 292Q524 280 550 280Q618 280 618 378Q618 474 574.50 543Q531 612 435 694L330 783Q273 832 236.50 870Q200 908 162.50 963.50Q125 1019 107 1086Q89 1153 89 1235Q89 1450 218.50 1566.50Q348 1683 576 1684Q984 1684 987 1200L635 1165Q635 1230 633.50 1262.50Q632 1295 625 1329.50Q618 1364 602.50 1377.50Q587 1391 561 1391Q524 1390 505 1352Q486 1314 486 1275Q486 1254 489.50 1234Q493 1214 496 1198.50Q499 1183 509 1164.50Q519 1146 524 1135Q529 1124 544 1106Q559 1088 564 1081Q569 1074 588 1056Q607 1038 611 1034.50Q615 1031 637 1011.50Q659 992 661 990L757 905Q818 850 860.50 802Q903 754 942 691.50Q981 629 1000.50 555.50Q1020 482 1020 397Q1020 218 897.50 96Q775-26 575-26Z"  horiz-adv-x="1077" vert-adv-y="2048"  />

      
      <glyph glyph-name="uni54" unicode="&#x54;" d="M269 0L269 1358L27 1358L27 1658L916 1658L916 1358L675 1358L675 0L269 0Z"  horiz-adv-x="943" vert-adv-y="2048"  />

      
      <glyph glyph-name="uni55" unicode="&#x55;" d="M615-26Q471-26 373 6.50Q275 39 217 107.50Q159 176 134.50 271Q110 366 110 501L110 1658L514 1658L514 433Q514 399 517 375Q520 351 529 322.50Q538 294 560 278.50Q582 263 615 263Q648 263 670 278.50Q692 294 701 322.50Q710 351 712.50 375Q715 399 715 433L715 1658L1120 1658L1120 501Q1120 366 1095 271Q1070 176 1012.50 107.50Q955 39 856.50 6.50Q758-26 615-26Z"  horiz-adv-x="1230" vert-adv-y="2048"  />

      
      <glyph glyph-name="uni56" unicode="&#x56;" d="M324 0L45 1658L386 1658L540 561L681 1658L1048 1658L764 0L324 0Z"  horiz-adv-x="1090" vert-adv-y="2048"  />

      
      <glyph glyph-name="uni57" unicode="&#x57;" d="M229 0L52 1658L396 1658L472 758L568 1658L834 1658L939 767L1017 1658L1358 1658L1179 0L815 0L700 936L595 0L229 0Z"  horiz-adv-x="1410" vert-adv-y="2048"  />

      
      <glyph glyph-name="uni58" unicode="&#x58;" d="M10 0L326 902L26 1658L412 1658L573 1249L696 1658L1029 1658L756 782L1064 0L684 0L502 458L339 0L10 0Z"  horiz-adv-x="1074" vert-adv-y="2048"  />

      
      <glyph glyph-name="uni59" unicode="&#x59;" d="M317 0L317 705L14 1658L397 1658L528 1214L637 1658L1004 1658L706 705L706 0L317 0Z"  horiz-adv-x="1018" vert-adv-y="2048"  />

      
      <glyph glyph-name="uni5a" unicode="&#x5a;" d="M56 0L56 237L436 1386L69 1386L69 1658L830 1658L830 1422L447 271L835 271L835 0L56 0Z"  horiz-adv-x="894" vert-adv-y="2048"  />

      
      <glyph glyph-name="uni5b" unicode="&#x5b;" d="M99-378L101 1658L632 1658L632 1525L372 1525L370-245L630-245L630-378L99-378Z"  horiz-adv-x="675" vert-adv-y="2048"  />

      
      <glyph glyph-name="uni5c" unicode="&#x5c;" d="M624 0L97 1658L274 1658L799 0L624 0Z"  horiz-adv-x="897" vert-adv-y="2048"  />

      
      <glyph glyph-name="uni5d" unicode="&#x5d;" d="M42-378L42-245L302-245L300 1525L40 1525L40 1658L571 1658L573-378L42-378Z"  horiz-adv-x="672" vert-adv-y="2048"  />

      
      <glyph glyph-name="uni5e" unicode="&#x5e;" d="M59 966L358 1658L634 1658L935 966L631 966L495 1338L360 966L59 966Z"  horiz-adv-x="993" vert-adv-y="2048"  />

      
      <glyph glyph-name="uni5f" unicode="&#x5f;" d="M0-360L0-120L767-120L767-360L0-360Z"  horiz-adv-x="767" vert-adv-y="2048"  />

      
      <glyph glyph-name="uni60" unicode="&#x60;" d="M340 1243L73 1658L451 1658L578 1243L340 1243Z"  horiz-adv-x="648" vert-adv-y="2048"  />

      
      <glyph glyph-name="uni61" unicode="&#x61;" d="M484 216Q529 216 563 262L563 584Q486 548 440.50 472.50Q395 397 395 335Q395 281 421 248.50Q447 216 484 216M357-22Q287-21 231 5.50Q175 32 140.50 74.50Q106 117 87.50 167.50Q69 218 69 271Q69 329 84 380Q99 431 122 468.50Q145 506 182 540Q219 574 253 596Q287 618 334 640.50Q381 663 414.50 675.50Q448 688 494.50 705.50Q541 723 563 732L563 860Q563 934 507 934Q476 934 464 914.50Q452 895 449 861L438 766L100 780L102 798Q103 816 103 817Q119 1016 228.50 1111Q338 1206 543 1206Q718 1206 814.50 1107.50Q911 1009 911 855L911 298Q911 243 914 189.50Q917 136 919 111.50Q921 87 926.50 44Q932 1 932 0L607 0Q581 161 580 165Q556 84 499 31Q442-22 357-22Z"  horiz-adv-x="1006" vert-adv-y="2048"  />

      
      <glyph glyph-name="uni62" unicode="&#x62;" d="M543 206Q578 205 598 228Q618 251 618 286L618 918Q618 954 597.50 977.50Q577 1001 543 997Q512 992 469 962L469 231Q511 206 543 206M737-22Q605-22 469 90L469 0L102 0L102 1658L469 1658L469 1099Q536 1155 606 1182Q669 1206 726 1206Q732 1206 738 1206Q858 1201 921.50 1119.50Q985 1038 985 885L985 310Q985 153 917.50 65.50Q850-22 737-22Z"  horiz-adv-x="1071" vert-adv-y="2048"  />

      
      <glyph glyph-name="uni63" unicode="&#x63;" d="M506-22Q315-22 196.50 78Q78 178 78 353L78 833Q78 1008 196 1107Q314 1206 506 1206Q699 1206 813.50 1116.50Q928 1027 928 854L928 712L570 712L570 866Q570 920 553.50 939Q537 958 506 958Q447 958 447 856L447 330Q447 228 506 228Q536 228 553 247Q570 266 570 320L570 494L928 494L928 332Q928 159 813 68.50Q698-22 506-22Z"  horiz-adv-x="994" vert-adv-y="2048"  />

      
      <glyph glyph-name="uni64" unicode="&#x64;" d="M525 203Q555 203 599 229L599 968Q563 987 529 987Q493 987 474 961.50Q455 936 455 892L455 287Q455 252 474 227.50Q493 203 525 203M353-22Q227-22 156.50 64.50Q86 151 86 309L86 874Q86 1026 159 1116Q232 1206 356 1206Q486 1206 599 1111L599 1658L966 1658L966 0L599 0L599 96Q478-22 353-22Z"  horiz-adv-x="1068" vert-adv-y="2048"  />

      
      <glyph glyph-name="uni65" unicode="&#x65;" d="M441 733L582 733L582 854Q582 946 506 946Q441 946 441 844L441 733M807.50 68.50Q807.50 68.50 752.25 23.25Q697-22 506-22Q315-22 196.50 78Q78 178 78 353L78 831Q78 1006 196.50 1106Q315 1206 506 1206Q699 1206 808.50 1114Q918 1022 918 846L918 567L441 567L441 341Q441 287 459.50 262.50Q478 238 506 238Q582 238 582 330L582 424L918 424L918 333Q918 159 807.50 68.50Z"  horiz-adv-x="991" vert-adv-y="2048"  />

      
      <glyph glyph-name="uni66" unicode="&#x66;" d="M138 0L138 941L33 941L33 1184L138 1184L138 1280Q138 1348 144.50 1395Q151 1442 171.50 1488.50Q192 1535 228.50 1562.50Q265 1590 328.50 1607Q392 1624 482 1624Q557 1624 646 1614L646 1342Q592 1351 578 1351Q504 1351 504 1278L504 1184L646 1184L646 941L504 941L504 0L138 0Z"  horiz-adv-x="676" vert-adv-y="2048"  />

      
      <glyph glyph-name="uni67" unicode="&#x67;" d="M533 579Q583 579 597.50 623.50Q612 668 612 787Q612 911 599 952.50Q586 994 532 994Q513 994 500 989Q487 984 479 970Q471 956 466.50 944Q462 932 460 904.50Q458 877 457.50 859Q457 841 457 801Q457 792 457 787Q457 672 471 625.50Q485 579 533 579M570-137Q649-137 687-122.50Q725-108 730-74Q732-62 732-51Q732-18 712 0Q686 22 615 32L442 57Q401-9 401-51Q401-137 570-137M571-352Q54-352 54-113Q54-81 69-49Q84-17 112.50 13.50Q141 44 164.50 64.50Q188 85 224 112Q144 143 108 174Q72 205 63 245Q59 263 59 281Q59 300 63 316Q71 350 96.50 381Q122 412 147 435Q172 458 213 490Q86 581 86 765Q86 989 201.50 1097.50Q317 1206 525 1206Q611 1206 686 1181Q761 1156 803 1110Q885 1203 964 1247L1011 1270L1095 1104Q1068 1095 1006 1064Q944 1033 897 1006Q964 924 964 770Q964 580 860.50 474Q757 368 555 368Q436 368 340 410Q301 362 301 334Q301 330 302 326Q309 301 415 283Q443 278 697 243Q880 216 950 150Q1020 84 1020-40Q1020-352 571-352Z"  horiz-adv-x="1065" vert-adv-y="2048"  />

      
      <glyph glyph-name="uni68" unicode="&#x68;" d="M103 0L103 1658L469 1658L469 1084Q590 1206 755 1206Q862 1206 924 1127.50Q986 1049 986 919L986 0L620 0L620 876Q620 915 606.50 933.50Q593 952 561 951Q518 947 469 917L469 0L103 0Z"  horiz-adv-x="1081" vert-adv-y="2048"  />

      
      <glyph glyph-name="uni69" unicode="&#x69;" d="M99 1390L99 1625L468 1625L468 1390L99 1390M101 0L101 1184L468 1184L468 0L101 0Z"  horiz-adv-x="566" vert-adv-y="2048"  />

      
      <glyph glyph-name="uni6a" unicode="&#x6a;" d="M126 1390L126 1625L495 1625L495 1390L126 1390M-12-359L-12-96Q33-105 47-105Q128-105 128-17L128 1184L495 1184L495-63Q495-209 415.50-299Q336-389 185-389Q97-389-12-359Z"  horiz-adv-x="593" vert-adv-y="2048"  />

      
      <glyph glyph-name="uni6b" unicode="&#x6b;" d="M102 0L102 1658L465 1658L465 757L747 1184L1165 1184L840 693L1164 0L755 0L551 550L465 449L465 0L102 0Z"  horiz-adv-x="1175" vert-adv-y="2048"  />

      
      <glyph glyph-name="uni6c" unicode="&#x6c;" d="M114 0L114 1658L480 1658L480 0L114 0Z"  horiz-adv-x="588" vert-adv-y="2048"  />

      
      <glyph glyph-name="uni6d" unicode="&#x6d;" d="M102 0L102 1184L466 1184L466 1093Q584 1206 748 1206Q819 1206 872 1170Q925 1134 953 1069Q1078 1206 1258 1206Q1365 1206 1428 1127.50Q1491 1049 1491 917L1491 0L1127 0L1127 877Q1127 952 1071 952Q1069 952 1067 952Q1022 950 979 925L979 917L979 0L618 0L618 877Q618 952 561 952Q559 952 556 952Q515 950 466 923L466 0L102 0Z"  horiz-adv-x="1586" vert-adv-y="2048"  />

      
      <glyph glyph-name="uni6e" unicode="&#x6e;" d="M102 0L102 1184L469 1184L469 1065Q610 1206 754 1206Q862 1206 924 1127.50Q986 1049 986 919L986 0L619 0L619 876Q619 915 606 933.50Q593 952 561 951Q518 947 469 917L469 0L102 0Z"  horiz-adv-x="1080" vert-adv-y="2048"  />

      
      <glyph glyph-name="uni6f" unicode="&#x6f;" d="M510-22Q315-22 196.50 73Q78 168 78 352L78 832Q78 1016 196.50 1111Q315 1206 510 1206Q706 1206 826.50 1111Q947 1016 947 832L947 352Q947 258 914 186Q881 114 821.50 69Q762 24 683.50 1Q605-22 510-22M511 218Q549 218 567.50 243.50Q586 269 586 326L586 858Q586 915 567.50 940.50Q549 966 511 966Q439 966 439 858L439 326Q439 218 511 218Z"  horiz-adv-x="1025" vert-adv-y="2048"  />

      
      <glyph glyph-name="uni70" unicode="&#x70;" d="M538 206Q573 205 594.50 228Q616 251 616 286L616 918Q616 953 594 977Q572 1001 538 997Q512 993 469 963L469 230Q510 206 538 206M102-390L102 1184L469 1184L469 1100Q596 1206 724 1206Q730 1206 736 1206Q856 1201 919.50 1119.50Q983 1038 983 885L983 310Q983 153 915.50 65.50Q848-22 735-22Q603-22 469 90L469-390L102-390Z"  horiz-adv-x="1069" vert-adv-y="2048"  />

      
      <glyph glyph-name="uni71" unicode="&#x71;" d="M526 203Q553 203 604 234L604 964Q560 987 530 987Q493 987 473 961Q453 935 453 892L453 287Q453 252 473 227.50Q493 203 526 203M604-390L604 104Q476-22 352-22Q225-22 154.50 64.50Q84 151 84 309L84 874Q84 1026 157 1116Q230 1206 354 1206Q487 1206 604 1103L604 1184L970 1184L970-390L604-390Z"  horiz-adv-x="1070" vert-adv-y="2048"  />

      
      <glyph glyph-name="uni72" unicode="&#x72;" d="M106 0L106 1184L473 1184L473 978Q580 1198 702 1198Q727 1198 753 1188L753 882Q738 884 723 882Q574 872 473 727L473 0L106 0Z"  horiz-adv-x="790" vert-adv-y="2048"  />

      
      <glyph glyph-name="uni73" unicode="&#x73;" d="M473-22Q319-22 215.50 43Q112 108 36 264L279 379Q320 304 368 260Q411 221 452 220Q458 220 463 221Q487 224 503.50 242Q520 260 519 287Q519 301 508 317.50Q497 334 475.50 355Q454 376 435 392Q416 408 384 434Q352 460 336 473L284 517Q191 596 127 688.50Q63 781 64 868Q64 1011 178.50 1108.50Q293 1206 446 1206Q595 1206 698.50 1129.50Q802 1053 850 904L614 790Q593 847 552 898Q511 949 468 952Q435 955 416 938.50Q397 922 396 899Q395 882 404 863.50Q413 845 437.50 820.50Q462 796 480 779.50Q498 763 537 731Q576 699 592 685L638 646Q643 642 652 634Q693 599 714.50 579.50Q736 560 770 523Q804 486 821.50 457Q839 428 852.50 387.50Q866 347 866 305Q866 229 832.50 166Q799 103 743 62.50Q687 22 617 0Q547-22 473-22Z"  horiz-adv-x="897" vert-adv-y="2048"  />

      
      <glyph glyph-name="uni74" unicode="&#x74;" d="M443-13Q383-10 335 5.50Q287 21 254.50 45Q222 69 199 106Q176 143 162.50 180Q149 217 141.50 268Q134 319 132 361.50Q130 404 130 461L130 945L19 945L19 1184L130 1184L130 1549L501 1549L501 1184L664 1184L664 945L501 945L501 377Q501 334 531 313Q561 292 606 289Q627 288 650 290.50Q673 293 685 295.50Q697 298 699 299L699 6Q593-14 492-14Q467-14 443-13Z"  horiz-adv-x="751" vert-adv-y="2048"  />

      
      <glyph glyph-name="uni75" unicode="&#x75;" d="M322-22Q215-22 153 56.50Q91 135 91 265L91 1184L457 1184L457 294Q457 220 514 220Q516 220 519 220Q554 222 600 246L600 1184L966 1184L966 0L600 0L600 107Q463-22 322-22Z"  horiz-adv-x="1069" vert-adv-y="2048"  />

      
      <glyph glyph-name="uni76" unicode="&#x76;" d="M256 0L18 1184L366 1184L450 486L525 1184L874 1184L625 0L256 0Z"  horiz-adv-x="884" vert-adv-y="2048"  />

      
      <glyph glyph-name="uni77" unicode="&#x77;" d="M209 0L39 1184L346 1184L421 569L496 1184L758 1184L816 548L908 1184L1190 1184L1017 0L702 0L618 616L517 0L209 0Z"  horiz-adv-x="1229" vert-adv-y="2048"  />

      
      <glyph glyph-name="uni78" unicode="&#x78;" d="M22 0L270 658L38 1184L410 1184L525 925L625 1184L893 1184L669 601L935 0L560 0L426 303L320 0L22 0Z"  horiz-adv-x="939" vert-adv-y="2048"  />

      
      <glyph glyph-name="uni79" unicode="&#x79;" d="M150-358L150-109Q198-109 227.50-106Q257-103 284-92.50Q311-82 322.50-60.50Q334-39 334-4Q334 38 290 190Q286 204 144 689.50Q2 1175 0 1184L341 1184L488 558L588 1184L929 1184L651-65Q632-150 587.50-210Q543-270 480-302Q418-333 350-346Q287-358 214-358Q208-358 203-358L150-358Z"  horiz-adv-x="951" vert-adv-y="2048"  />

      
      <glyph glyph-name="uni7a" unicode="&#x7a;" d="M73 0L73 235L390 918L94 918L94 1184L767 1184L767 956L451 267L776 267L776 0L73 0Z"  horiz-adv-x="829" vert-adv-y="2048"  />

      
      <glyph glyph-name="uni7b" unicode="&#x7b;" d="M742-396Q666-396 604.50-390.50Q543-385 494-376Q445-367 408-349.50Q371-332 344-313Q317-294 298.50-264Q280-234 268-204.50Q256-175 249.50-132Q243-89 241-48Q239-7 239 50L239 177Q239 418 220 468.50Q201 519 102 519L102 785Q201 785 220 835.50Q239 886 239 1127L239 1254Q239 1318 242 1363Q245 1408 253.50 1455Q262 1502 277.50 1533Q293 1564 319 1594Q345 1624 382 1642Q419 1660 470.50 1674.50Q522 1689 589 1695Q656 1701 742 1701L742 1461Q684 1461 653 1454Q622 1447 601.50 1420.50Q581 1394 575.50 1351.50Q570 1309 570 1230L570 1086Q570 988 562.50 920.50Q555 853 535 794Q515 735 477 700.50Q439 666 380 652Q439 638 477 603.50Q515 569 535 510.50Q555 452 562.50 384Q570 316 570 219L570 74Q570-5 575.50-47.50Q581-90 601.50-116Q622-142 653-149Q684-156 742-156L742-396Z"  horiz-adv-x="810" vert-adv-y="2048"  />

      
      <glyph glyph-name="uni7c" unicode="&#x7c;" d="M128-387L129 1658L422 1658L422-387L128-387Z"  horiz-adv-x="551" vert-adv-y="2048"  />

      
      <glyph glyph-name="uni7d" unicode="&#x7d;" d="M71-396L71-156Q129-156 160-149Q191-142 211.50-116Q232-90 237.50-47.50Q243-5 243 74L243 219Q243 316 250.50 384Q258 452 278 510.50Q298 569 336 603.50Q374 638 433 652Q374 666 336 700.50Q298 735 278 794Q258 853 250.50 920.50Q243 988 243 1086L243 1230Q243 1309 237.50 1351.50Q232 1394 211.50 1420.50Q191 1447 160 1454Q129 1461 71 1461L71 1701Q157 1701 224 1695Q291 1689 342.50 1674.50Q394 1660 431 1642Q468 1624 493.50 1594Q519 1564 534.50 1533Q550 1502 558.50 1455Q567 1408 570 1363Q573 1318 573 1254L573 1127Q573 887 592 836Q611 785 710 785L710 519Q611 519 592 468Q573 417 573 177L573 50Q573-1 571.50-38.50Q570-76 565-116Q560-156 551-184.50Q542-213 528-241.50Q514-270 493.50-290Q473-310 445-328.50Q417-347 381-358.50Q345-370 299-379Q253-388 196.50-392Q140-396 71-396Z"  horiz-adv-x="812" vert-adv-y="2048"  />

      
      <glyph glyph-name="uni7e" unicode="&#x7e;" d="M689 663Q638 663 565 693.50Q492 724 428.50 754.50Q365 785 335 785Q310 785 269.50 757Q229 729 198 680L85 829Q127 910 193.50 971.50Q260 1033 325 1033Q376 1033 448.50 1003Q521 973 584 943Q647 913 674 913Q700 913 738 942.50Q776 972 811 1015L937 891Q904 802 832.50 732.50Q761 663 689 663Z"  horiz-adv-x="1006" vert-adv-y="2048"  />

      
      <glyph glyph-name="unia1" unicode="&#xa1;" d="M98 1011L98 1347L440 1347L440 1011L98 1011M68-305L202 905L329 905L432-305L68-305Z"  horiz-adv-x="504" vert-adv-y="2048"  />

      
      <glyph glyph-name="unia2" unicode="&#xa2;" d="M454-302L454-20Q281-8 177 90.50Q73 189 73 353L73 833Q73 997 177 1094.50Q281 1192 454 1204L454 1482L545 1482L545 1204Q720 1195 821.50 1106Q923 1017 923 854L923 712L565 712L565 856Q565 910 548 929Q531 948 501 948Q441 948 441 846L441 339Q441 238 501 238Q531 238 548 257Q565 276 565 330L565 494L923 494L923 332Q923 169 821 79.50Q719-10 545-20L545-302L454-302Z"  horiz-adv-x="977" vert-adv-y="2048"  />

      
      <glyph glyph-name="unia3" unicode="&#xa3;" d="M55 0L55 211L178 268L178 638L55 638L55 926L178 926L178 1112Q178 1188 181 1245Q184 1302 194.50 1365Q205 1428 223 1472.50Q241 1517 272.50 1559Q304 1601 347 1627Q390 1653 452.50 1668.50Q515 1684 594 1684Q693 1684 765.50 1660Q838 1636 882 1596Q926 1556 952 1492.50Q978 1429 987.50 1362Q997 1295 997 1206L997 1162L667 1162Q667 1201 666.50 1221.50Q666 1242 664 1271.50Q662 1301 657.50 1316Q653 1331 645.50 1346.50Q638 1362 626 1368.50Q614 1375 597 1375Q550 1375 539.50 1318.50Q529 1262 529 1105L529 924L772 924L772 638L529 638L529 316L984 316L984 0L55 0Z"  horiz-adv-x="1058" vert-adv-y="2048"  />

      
      <glyph glyph-name="unia4" unicode="&#xa4;" d="M331.50 622Q331.50 622 379.75 571.50Q428 521 569 521Q710 521 807 622Q904 723 904 866Q904 1009 807.50 1110Q711 1211 569 1211Q428 1211 331.50 1110Q235 1009 235 866Q235 723 331.50 622M114 381L84 411L247 573Q136 697 136 866Q136 1035 247 1159L84 1321L114 1351L276 1189Q398 1304 566 1304Q567 1304 568.50 1304Q570 1304 572 1304Q740 1304 862 1189L1024 1351L1054 1321L892 1159Q1002 1034 1002 866Q1002 697 891 573L1054 411L1024 381L862 543Q740 428 572 428Q571 428 569.50 428Q568 428 566 428Q398 428 276 543L114 381Z"  horiz-adv-x="1138" vert-adv-y="2048"  />

      
      <glyph glyph-name="unia5" unicode="&#xa5;" d="M298 0L298 247L132 247L132 417L298 417L298 556L132 556L132 734L251 734L-4 1658L379 1658L509 1070L619 1658L985 1658L735 734L856 734L856 556L688 556L688 417L856 417L856 247L688 247L688 0L298 0Z"  horiz-adv-x="984" vert-adv-y="2048"  />

      
      <glyph glyph-name="unia6" unicode="&#xa6;" d="M99 824L99 1658L348 1658L348 824L99 824M99-387L99 447L348 447L348-387L99-387Z"  horiz-adv-x="447" vert-adv-y="2048"  />

      
      <glyph glyph-name="unia7" unicode="&#xa7;" d="M536 761Q555 772 563 777.50Q571 783 585 794Q599 805 604.50 817Q610 829 610 844Q610 886 550 922L455 977Q413 967 390.50 946Q368 925 368 896Q368 851 403 833L536 761M489-13Q333-13 236.50 80.50Q140 174 100 331L338 390Q358 333 401 284.50Q444 236 497 236Q548 236 577 260.50Q606 285 607 325Q607 382 567 423.50Q527 465 423 529L258 630Q102 727 102 870Q102 881 103 892Q111 975 162.50 1035.50Q214 1096 281 1115Q210 1153 152.50 1227.50Q95 1302 89 1380Q88 1391 88 1403Q88 1471 114 1528Q144 1595 201.50 1638Q259 1681 333.50 1704.50Q408 1728 491 1728Q650 1728 753 1631.50Q856 1535 894 1376L663 1324Q642 1397 606 1442Q571 1485 510 1485Q507 1485 504 1485Q457 1483 429.50 1461.50Q402 1440 402 1398Q402 1372 411 1350Q420 1328 442 1308Q464 1288 476 1279Q488 1270 519.50 1252Q551 1234 553 1233L674 1159Q875 1038 875 874Q875 796 833.50 743.50Q792 691 708 635Q801 560 844 491Q887 422 887 334Q887 181 781.50 84Q676-13 489-13Z"  horiz-adv-x="996" vert-adv-y="2048"  />

      
      <glyph glyph-name="unia8" unicode="&#xa8;" d="M537 1334L537 1658L817 1658L817 1334L537 1334M67 1334L67 1658L346 1658L346 1334L67 1334Z"  horiz-adv-x="884" vert-adv-y="2048"  />

      
      <glyph glyph-name="unia9" unicode="&#xa9;" d="M1218.50 21.50Q1218.50 21.50 1149.25-3.25Q1080-28 912-28Q744-28 605 22Q466 72 373.50 155Q281 238 217 349.50Q153 461 124.50 581.50Q96 702 96 829Q96 957 124.50 1077Q153 1197 217 1308.50Q281 1420 373.50 1503Q466 1586 605 1635.50Q744 1685 912 1685Q1080 1685 1218 1635.50Q1356 1586 1448.50 1503Q1541 1420 1604.50 1308.50Q1668 1197 1696.50 1077Q1725 957 1725 829Q1725 701 1697 580.50Q1669 460 1605.50 348.50Q1542 237 1449.50 154Q1357 71 1218.50 21.50M914 52Q1060 52 1181 95Q1302 138 1385 212Q1468 286 1525 385.50Q1582 485 1608.50 596Q1635 707 1635 827Q1635 947 1608.50 1058Q1582 1169 1525 1268Q1468 1367 1385 1440Q1302 1513 1181 1555.50Q1060 1598 914 1598Q767 1598 645.50 1555.50Q524 1513 441 1440Q358 1367 301 1268Q244 1169 217.50 1058Q191 947 191 827Q191 707 217.50 596Q244 485 301 385.50Q358 286 441 212Q524 138 645.50 95Q767 52 914 52M909 252Q703 252 575.50 347Q448 442 448 608L448 1058Q448 1224 575.50 1318Q703 1412 909 1412Q1117 1412 1240 1327.50Q1363 1243 1363 1079L1363 945L978 945L978 1081Q978 1132 960 1150.50Q942 1169 909 1169Q844 1169 844 1071L844 595Q844 498 909 498Q941 498 959.50 516Q978 534 978 585L978 739L1363 739L1363 588Q1363 424 1239.50 338Q1116 252 909 252Z"  horiz-adv-x="1822" vert-adv-y="2048"  />

      
      <glyph glyph-name="uniaa" unicode="&#xaa;" d="M496 841Q540 841 570 880L570 1152Q498 1121 455 1056.50Q412 992 412 941Q412 895 436.50 868Q461 841 496 841M376 637Q247 640 175 714.50Q103 789 103 886Q103 935 117 978.50Q131 1022 153 1053.50Q175 1085 210 1113.50Q245 1142 277 1161Q309 1180 354 1199Q399 1218 430.50 1228.50Q462 1239 505.50 1253.50Q549 1268 570 1276L570 1386Q570 1450 518 1450Q487 1450 475 1422.50Q463 1395 453 1308L134 1319Q135 1682 551 1682Q717 1682 808 1597.50Q899 1513 899 1380L899 656L611 656L587 795Q563 726 509 681.50Q455 637 376 637Z"  horiz-adv-x="1012" vert-adv-y="2048"  />

      
      <glyph glyph-name="uniab" unicode="&#xab;" d="M958 73L534 557L534 673L958 1157L958 823L737 614L958 407L958 73M501 73L79 557L79 673L501 1157L501 823L282 614L501 407L501 73Z"  horiz-adv-x="1017" vert-adv-y="2048"  />

      
      <glyph glyph-name="uniac" unicode="&#xac;" d="M798 389L798 740L99 740L99 981L978 981L978 389L798 389Z"  horiz-adv-x="1087" vert-adv-y="2048"  />

      
      <glyph glyph-name="uniad" unicode="&#xad;" d="M137 408L137 635L661 635L661 408L137 408Z"  horiz-adv-x="778" vert-adv-y="2048"  />

      
      <glyph glyph-name="uniae" unicode="&#xae;" d="M1219.50 21.50Q1219.50 21.50 1150.25-3.25Q1081-28 913-28Q745-28 606.50 22Q468 72 375 155Q282 238 218.50 349.50Q155 461 126.50 581Q98 701 98 828Q98 956 126.50 1076Q155 1196 218.50 1307.50Q282 1419 375 1502Q468 1585 606.50 1634.50Q745 1684 913 1684Q1081 1684 1219 1634.50Q1357 1585 1449.50 1502Q1542 1419 1605.50 1307.50Q1669 1196 1697.50 1076Q1726 956 1726 828Q1726 700 1698 580Q1670 460 1606.50 348.50Q1543 237 1450.50 154Q1358 71 1219.50 21.50M912 81Q1051 81 1166.50 123Q1282 165 1361 236Q1440 307 1495 403Q1550 499 1575 606Q1600 713 1600 827Q1600 942 1575 1048.50Q1550 1155 1495 1250.50Q1440 1346 1361 1417Q1282 1488 1166.50 1529.50Q1051 1571 912 1571Q772 1571 655.50 1529.50Q539 1488 460 1417.50Q381 1347 326 1251Q271 1155 246 1048.50Q221 942 221 827Q221 713 246 606.50Q271 500 326 403.50Q381 307 460 236Q539 165 655.50 123Q772 81 912 81M850 902L889 902Q1020 902 1020 1044Q1020 1176 904 1176L850 1176L850 902M558 318L558 1343L906 1343Q999 1343 1065 1331.50Q1131 1320 1183.50 1290.50Q1236 1261 1262 1206.50Q1288 1152 1288 1071Q1288 969 1259.50 910.50Q1231 852 1148 813L1324 318L1016 318L887 757L850 757L850 318L558 318Z"  horiz-adv-x="1824" vert-adv-y="2048"  />

      
      <glyph glyph-name="uniaf" unicode="&#xaf;" d="M-128 1496L-128 1658L428 1658L428 1496L-128 1496Z"  horiz-adv-x="291" vert-adv-y="2048"  />

      
      <glyph glyph-name="unib0" unicode="&#xb0;" d="M578 836Q385 836 266 953Q147 1070 147 1260Q147 1451 266 1567Q385 1683 578 1683Q772 1683 891.50 1567Q1011 1451 1011 1260Q1011 1069 892 952.50Q773 836 578 836M424.50 1091.50Q424.50 1091.50 452.25 1059.25Q480 1027 578 1027Q676 1027 731.50 1091.50Q787 1156 787 1260Q787 1364 732 1427Q677 1490 578 1490Q480 1490 424.50 1427Q369 1364 369 1260Q369 1156 424.50 1091.50Z"  horiz-adv-x="1158" vert-adv-y="2048"  />

      
      <glyph glyph-name="unib1" unicode="&#xb1;" d="M137 0L137 212L919 212L919 0L137 0M418 385L418 677L137 677L137 880L418 880L418 1172L639 1172L639 880L919 880L919 677L639 677L639 385L418 385Z"  horiz-adv-x="1056" vert-adv-y="2048"  />

      
      <glyph glyph-name="unib2" unicode="&#xb2;" d="M132 624L132 838L407 1259Q413 1268 446.50 1316.50Q480 1365 493 1387Q506 1409 521 1449Q536 1489 536 1523Q536 1571 512 1592Q495 1607 472 1607Q462 1607 451 1604Q415 1594 403.50 1551Q392 1508 392 1393L126 1393L126 1461Q126 1570 159 1652.50Q192 1735 269.50 1786.50Q347 1838 463 1838Q621 1838 711 1753Q801 1668 801 1519Q801 1483 793 1445.50Q785 1408 775 1380Q765 1352 744 1313Q723 1274 710 1253.50Q697 1233 669.50 1191Q642 1149 631 1132L444 839L767 839L767 624L132 624Z"  horiz-adv-x="879" vert-adv-y="2048"  />

      
      <glyph glyph-name="unib3" unicode="&#xb3;" d="M455 602Q376 602 316.50 621Q257 640 219 673.50Q181 707 157.50 757.50Q134 808 124.50 866Q115 924 115 997L115 1041L386 1041L386 992Q386 901 402 866Q418 831 459 831Q496 831 509 862.50Q522 894 522 971Q522 1064 498.50 1103Q475 1142 405 1142L353 1142L353 1313L400 1313Q473 1313 497.50 1354Q522 1395 522 1489Q522 1557 506 1589Q490 1621 451 1621Q414 1621 400 1587.50Q386 1554 386 1489L386 1412L115 1412L115 1496Q115 1660 204.50 1749Q294 1838 450 1838Q611 1838 700.50 1754.50Q790 1671 790 1509Q790 1408 749.50 1335Q709 1262 652 1247Q790 1193 790 980Q790 804 710 703Q630 602 455 602Z"  horiz-adv-x="878" vert-adv-y="2048"  />

      
      <glyph glyph-name="unib4" unicode="&#xb4;" d="M108 1243L236 1658L613 1658L346 1243L108 1243Z"  horiz-adv-x="648" vert-adv-y="2048"  />

      
      <glyph glyph-name="unib5" unicode="&#xb5;" d="M80-390L79 1184L446 1184L446 308Q446 268 459 250Q472 232 504 233Q539 235 584 260L584 1184L951 1184L951 0L584 0L584 89Q529 36 470 10Q462 6 446 0L446-390L80-390Z"  horiz-adv-x="1037" vert-adv-y="2048"  />

      
      <glyph glyph-name="unib6" unicode="&#xb6;" d="M379-196L379 989Q240 994 156.50 1081.50Q73 1169 73 1322Q73 1399 96 1458.50Q119 1518 156.50 1555Q194 1592 247.50 1616Q301 1640 357.50 1649Q414 1658 479 1658L943 1658L943-196L754-196L754 1443L583 1443L583-196L379-196Z"  horiz-adv-x="1086" vert-adv-y="2048"  />

      
      <glyph glyph-name="unib7" unicode="&#xb7;" d="M75 603L75 937L417 937L417 603L75 603Z"  horiz-adv-x="491" vert-adv-y="2048"  />

      
      <glyph glyph-name="unib8" unicode="&#xb8;" d="M124-567L124-414Q162-425 218-429Q231-430 244-430Q285-430 323-420Q373-408 373-375Q373-317 311.50-287.50Q250-258 180-257L180 0L306 0L306-141Q433-142 517.50-201.50Q602-261 603-356Q603-438 557-494Q511-548 439-570Q369-591 288-592Q286-592 284-592Q202-592 124-567Z"  horiz-adv-x="578" vert-adv-y="2048"  />

      
      <glyph glyph-name="unib9" unicode="&#xb9;" d="M351 624L351 1533L150 1479L150 1685Q155 1687 200.50 1704.50Q246 1722 280.50 1737Q315 1752 354.50 1775Q394 1798 410 1818L627 1818L627 624L351 624Z"  horiz-adv-x="878" vert-adv-y="2048"  />

      
      <glyph glyph-name="uniba" unicode="&#xba;" d="M505 849Q575 849 575 938L575 1382Q575 1471 505 1471Q438 1471 438 1382L438 938Q438 893 456 871Q474 849 505 849M504 637Q343 637 242.50 715Q142 793 142 942L142 1378Q142 1528 242.50 1605.50Q343 1683 504 1683Q666 1683 768 1605Q870 1527 870 1378L870 942Q870 793 768 715Q666 637 504 637Z"  horiz-adv-x="1012" vert-adv-y="2048"  />

      
      <glyph glyph-name="unibb" unicode="&#xbb;" d="M540 73L540 407L760 616L540 823L540 1157L963 673L963 557L540 73M83 73L83 407L305 616L83 823L83 1157L508 673L508 557L83 73Z"  horiz-adv-x="1019" vert-adv-y="2048"  />

      
      <glyph glyph-name="unibc" unicode="&#xbc;" d="M803 390L951 390L951 644L803 390M155 0L998 1658L1156 1658L312 0L155 0M223 827L223 1403L100 1328L100 1494Q224 1562 301 1658L427 1658L427 827L223 827M951 0L951 226L685 226L685 379L967 849L1117 849L1117 390L1221 390L1221 226L1117 226L1117 0L951 0Z"  horiz-adv-x="1320" vert-adv-y="2048"  />

      
      <glyph glyph-name="unibd" unicode="&#xbd;" d="M92 0L935 1658L1093 1658L249 0L92 0M153 827L153 1403L30 1328L30 1494Q154 1562 231 1658L357 1658L357 827L153 827M770 0L770 158L966 443Q1033 544 1049 585Q1065 624 1065 656Q1065 687 1047.50 707.50Q1030 728 997 728Q956 728 936 678Q924 647 924 610Q924 588 928 563L751 563Q745 625 745 650Q745 756 809 822Q873 888 991 888Q1110 888 1178.50 828Q1247 768 1247 660Q1247 584 1217 519Q1187 454 1118 350Q1118 349 1050.50 254Q983 159 983 158L1226 158L1226 0L770 0Z"  horiz-adv-x="1320" vert-adv-y="2048"  />

      
      <glyph glyph-name="unibe" unicode="&#xbe;" d="M812 390L959 390L959 644L812 390M151 0L994 1658L1153 1658L309 0L151 0M959 0L959 226L693 226L693 379L975 849L1126 849L1126 390L1229 390L1229 226L1126 226L1126 0L959 0M316 903Q213 903 155 964.50Q97 1026 97 1128L239 1128Q239 1088 257.50 1067.50Q276 1047 306 1047Q360 1047 360 1127Q360 1184 333.50 1200Q307 1216 232 1216L232 1338Q304 1338 333.50 1356.50Q363 1375 363 1427Q363 1515 304 1515Q268 1515 253.50 1494Q239 1473 239 1433L97 1433Q97 1659 321 1659Q513 1659 513 1447Q513 1386 478.50 1341.50Q444 1297 402 1291Q518 1267 518 1130Q518 1020 467 961.50Q416 903 316 903Z"  horiz-adv-x="1320" vert-adv-y="2048"  />

      
      <glyph glyph-name="unibf" unicode="&#xbf;" d="M417 979L417 1323L773 1323L773 979L417 979M551-364Q327-364 207-254Q87-144 87 54Q87 232 187.50 415.50Q288 599 429 680L429 881L764 881L764 613Q618 498 528 346Q449 213 449 78Q449 59 451 39Q456-16 480-32.50Q504-49 541-49Q572-48 594-24Q616-1 615 38Q615 62 613 78Q611 94 609 101Q607 108 600.50 126.50Q594 145 590 157L919 235Q922 223 929.50 195Q937 167 939 157.50Q941 148 945.50 128Q950 108 951 95.50Q952 83 953.50 64Q955 45 955 25Q955 20 955 15Q954-44 944-95Q932-150 903.50-201Q875-252 830-287Q785-322 714-343Q643-364 551-364Z"  horiz-adv-x="1068" vert-adv-y="2048"  />

      
      <glyph glyph-name="unic0" unicode="&#xc0;" d="M463 1806L196 2221L574 2221L701 1806L463 1806M511 565L660 565L585 1184L511 565M46 0L347 1658L819 1658L1117 0L746 0L694 331L479 331L429 0L46 0Z"  horiz-adv-x="1164" vert-adv-y="2048"  />

      
      <glyph glyph-name="unic1" unicode="&#xc1;" d="M463 1806L591 2221L968 2221L701 1806L463 1806M511 565L660 565L585 1184L511 565M46 0L347 1658L819 1658L1117 0L746 0L694 331L479 331L429 0L46 0Z"  horiz-adv-x="1164" vert-adv-y="2048"  />

      
      <glyph glyph-name="unic2" unicode="&#xc2;" d="M236 1806L434 2209L722 2209L928 1806L661 1806L581 2050L503 1806L236 1806M511 565L660 565L585 1184L511 565M46 0L347 1658L819 1658L1117 0L746 0L694 331L479 331L429 0L46 0Z"  horiz-adv-x="1164" vert-adv-y="2048"  />

      
      <glyph glyph-name="unic3" unicode="&#xc3;" d="M784 1807Q778 1806 771 1806Q733 1806 682 1826Q622 1849 566.50 1875Q511 1901 482 1901Q423 1901 423 1817L253 1817Q253 1889 259.50 1939.50Q266 1990 283.50 2033Q301 2076 334.50 2099Q368 2122 420 2127Q433 2128 446 2128L532 2113Q588 2093 632 2069Q676 2045 692 2042Q726 2036 740.50 2057.50Q755 2079 755 2115L909 2115Q909 2055 905.50 2009.50Q902 1964 890 1915.50Q878 1867 851.50 1839Q825 1811 784 1807M511 565L660 565L585 1184L511 565M46 0L347 1658L819 1658L1117 0L746 0L694 331L479 331L429 0L46 0Z"  horiz-adv-x="1164" vert-adv-y="2048"  />

      
      <glyph glyph-name="unic4" unicode="&#xc4;" d="M677 1806L677 2130L957 2130L957 1806L677 1806M207 1806L207 2130L486 2130L486 1806L207 1806M511 565L660 565L585 1184L511 565M46 0L347 1658L819 1658L1117 0L746 0L694 331L479 331L429 0L46 0Z"  horiz-adv-x="1164" vert-adv-y="2048"  />

      
      <glyph glyph-name="unic5" unicode="&#xc5;" d="M509 1819Q509 1819 522 1803.50Q535 1788 581 1788Q627 1788 652 1818.50Q677 1849 677 1893Q677 1936 652 1967Q627 1998 581 1998Q535 1998 509 1967Q483 1936 483 1893Q483 1850 509 1819M581 1669Q479 1669 409.50 1727.50Q340 1786 340 1893Q340 2001 409.50 2059Q479 2117 581 2117Q683 2117 753.50 2058.50Q824 2000 824 1893Q824 1786 754 1727.50Q684 1669 581 1669M511 565L660 565L585 1184L511 565M46 0L347 1658L819 1658L1117 0L746 0L694 331L479 331L429 0L46 0Z"  horiz-adv-x="1164" vert-adv-y="2048"  />

      
      <glyph glyph-name="unic6" unicode="&#xc6;" d="M615 573L792 573L792 1050L615 573M-5 0L724 1627L1461 1627L1461 1354L1133 1354L1133 997L1364 997L1364 715L1133 715L1133 271L1461 271L1461 0L792 0L792 325L536 325L406 0L-5 0Z"  horiz-adv-x="1502" vert-adv-y="2048"  />

      
      <glyph glyph-name="unic7" unicode="&#xc7;" d="M464-567L464-414Q502-425 558-429Q571-430 584-430Q625-430 663-420Q713-408 713-375Q713-317 651.50-287.50Q590-258 520-257L520 0L646 0L646-141Q773-142 857.50-201.50Q942-261 943-356Q943-438 897-494Q851-548 779-570Q709-591 628-592Q626-592 624-592Q542-592 464-567M613-26Q471-26 370.50 11.50Q270 49 211.50 123Q153 197 126.50 296Q100 395 100 529L100 1128Q100 1263 126.50 1362Q153 1461 211.50 1535Q270 1609 370.50 1646.50Q471 1684 613 1684Q726 1684 812 1660.50Q898 1637 953.50 1595.50Q1009 1554 1044 1492.50Q1079 1431 1093.50 1361Q1108 1291 1108 1205L1108 1056L709 1056L709 1238Q709 1274 707 1295.50Q705 1317 696.50 1345.50Q688 1374 667 1388.50Q646 1403 613 1403Q586 1403 566.50 1392Q547 1381 537 1366Q527 1351 521.50 1326Q516 1301 514.50 1282Q513 1263 513 1237L513 421Q513 395 514.50 375.50Q516 356 522 331.50Q528 307 538 291.50Q548 276 567.50 265.50Q587 255 613 255Q646 255 667 269.50Q688 284 696.50 313Q705 342 707 363.50Q709 385 709 421L709 611L1108 611L1108 463Q1108 376 1093.50 305.50Q1079 235 1044 172Q1009 109 953.50 66.50Q898 24 812-1Q726-26 613-26Z"  horiz-adv-x="1181" vert-adv-y="2048"  />

      
      <glyph glyph-name="unic8" unicode="&#xc8;" d="M391 1806L124 2221L502 2221L629 1806L391 1806M120 0L120 1658L896 1658L896 1386L526 1386L526 1016L802 1016L802 734L526 734L526 271L900 271L900 0L120 0Z"  horiz-adv-x="941" vert-adv-y="2048"  />

      
      <glyph glyph-name="unic9" unicode="&#xc9;" d="M391 1806L519 2221L896 2221L629 1806L391 1806M120 0L120 1658L896 1658L896 1386L526 1386L526 1016L802 1016L802 734L526 734L526 271L900 271L900 0L120 0Z"  horiz-adv-x="941" vert-adv-y="2048"  />

      
      <glyph glyph-name="unica" unicode="&#xca;" d="M164 1806L362 2209L650 2209L856 1806L589 1806L509 2050L431 1806L164 1806M120 0L120 1658L896 1658L896 1386L526 1386L526 1016L802 1016L802 734L526 734L526 271L900 271L900 0L120 0Z"  horiz-adv-x="941" vert-adv-y="2048"  />

      
      <glyph glyph-name="unicb" unicode="&#xcb;" d="M605 1806L605 2130L885 2130L885 1806L605 1806M135 1806L135 2130L414 2130L414 1806L135 1806M120 0L120 1658L896 1658L896 1386L526 1386L526 1016L802 1016L802 734L526 734L526 271L900 271L900 0L120 0Z"  horiz-adv-x="941" vert-adv-y="2048"  />

      
      <glyph glyph-name="unicc" unicode="&#xcc;" d="M205 1806L-62 2221L316 2221L443 1806L205 1806M121 0L121 1658L526 1658L526 0L121 0Z"  horiz-adv-x="647" vert-adv-y="2048"  />

      
      <glyph glyph-name="unicd" unicode="&#xcd;" d="M205 1806L333 2221L710 2221L443 1806L205 1806M121 0L121 1658L526 1658L526 0L121 0Z"  horiz-adv-x="647" vert-adv-y="2048"  />

      
      <glyph glyph-name="unice" unicode="&#xce;" d="M-22 1806L176 2209L464 2209L670 1806L403 1806L323 2050L245 1806L-22 1806M121 0L121 1658L526 1658L526 0L121 0Z"  horiz-adv-x="647" vert-adv-y="2048"  />

      
      <glyph glyph-name="unicf" unicode="&#xcf;" d="M419 1806L419 2130L699 2130L699 1806L419 1806M-51 1806L-51 2130L228 2130L228 1806L-51 1806M121 0L121 1658L526 1658L526 0L121 0Z"  horiz-adv-x="647" vert-adv-y="2048"  />

      
      <glyph glyph-name="unid0" unicode="&#xd0;" d="M99 0L99 748L11 748L11 945L99 945L99 1658L536 1658Q707 1658 817.50 1629.50Q928 1601 994 1535Q1060 1469 1086.50 1372.50Q1113 1276 1113 1129L1113 531Q1113 383 1086.50 286.50Q1060 190 994 123.50Q928 57 817.50 28.50Q707 0 537 0L99 0M505 280L543 280Q595 280 625.50 288.50Q656 297 671.50 319Q687 341 691.50 367.50Q696 394 696 442L696 1220Q696 1267 691.50 1293.50Q687 1320 671 1341Q655 1362 624.50 1370Q594 1378 542 1378L505 1378L505 945L577 945L577 748L505 748L505 280Z"  horiz-adv-x="1179" vert-adv-y="2048"  />

      
      <glyph glyph-name="unid1" unicode="&#xd1;" d="M786 1807Q780 1806 773 1806Q735 1806 684 1826Q624 1849 568.50 1875Q513 1901 484 1901Q425 1901 425 1817L255 1817Q255 1889 261.50 1939.50Q268 1990 285.50 2033Q303 2076 336.50 2099Q370 2122 422 2127Q435 2128 448 2128L534 2113Q590 2093 634 2069Q678 2045 694 2042Q728 2036 742.50 2057.50Q757 2079 757 2115L911 2115Q911 2055 907.50 2009.50Q904 1964 892 1915.50Q880 1867 853.50 1839Q827 1811 786 1807M120 0L120 1658L408 1658L711 948L711 1658L1046 1658L1046 0L769 0L468 780L468 0L120 0Z"  horiz-adv-x="1167" vert-adv-y="2048"  />

      
      <glyph glyph-name="unid2" unicode="&#xd2;" d="M495 1806L228 2221L606 2221L733 1806L495 1806M854.50 10.50Q854.50 10.50 804.25-7.75Q754-26 612-26Q470-26 370 10.50Q270 47 211 119.50Q152 192 126 290.50Q100 389 100 523L100 1135Q100 1269 126 1367.50Q152 1466 211 1538.50Q270 1611 370 1647.50Q470 1684 612 1684Q754 1684 854.50 1647.50Q955 1611 1014.50 1538.50Q1074 1466 1100.50 1367.50Q1127 1269 1127 1135L1127 523Q1127 389 1100.50 290.50Q1074 192 1014.50 119.50Q955 47 854.50 10.50M612 255Q645 255 666 269.50Q687 284 696 312Q705 340 707.50 363Q710 386 710 420L710 1239Q710 1273 707.50 1296Q705 1319 696 1346.50Q687 1374 666 1388.50Q645 1403 612 1403Q585 1403 566 1392Q547 1381 537.50 1366.50Q528 1352 523 1326.50Q518 1301 517.50 1284.50Q517 1268 517 1239L517 420Q517 392 517.50 375Q518 358 523 332.50Q528 307 537.50 292.50Q547 278 566 266.50Q585 255 612 255Z"  horiz-adv-x="1227" vert-adv-y="2048"  />

      
      <glyph glyph-name="unid3" unicode="&#xd3;" d="M495 1806L623 2221L1000 2221L733 1806L495 1806M854.50 10.50Q854.50 10.50 804.25-7.75Q754-26 612-26Q470-26 370 10.50Q270 47 211 119.50Q152 192 126 290.50Q100 389 100 523L100 1135Q100 1269 126 1367.50Q152 1466 211 1538.50Q270 1611 370 1647.50Q470 1684 612 1684Q754 1684 854.50 1647.50Q955 1611 1014.50 1538.50Q1074 1466 1100.50 1367.50Q1127 1269 1127 1135L1127 523Q1127 389 1100.50 290.50Q1074 192 1014.50 119.50Q955 47 854.50 10.50M612 255Q645 255 666 269.50Q687 284 696 312Q705 340 707.50 363Q710 386 710 420L710 1239Q710 1273 707.50 1296Q705 1319 696 1346.50Q687 1374 666 1388.50Q645 1403 612 1403Q585 1403 566 1392Q547 1381 537.50 1366.50Q528 1352 523 1326.50Q518 1301 517.50 1284.50Q517 1268 517 1239L517 420Q517 392 517.50 375Q518 358 523 332.50Q528 307 537.50 292.50Q547 278 566 266.50Q585 255 612 255Z"  horiz-adv-x="1227" vert-adv-y="2048"  />

      
      <glyph glyph-name="unid4" unicode="&#xd4;" d="M268 1806L466 2209L754 2209L960 1806L693 1806L613 2050L535 1806L268 1806M854.50 10.50Q854.50 10.50 804.25-7.75Q754-26 612-26Q470-26 370 10.50Q270 47 211 119.50Q152 192 126 290.50Q100 389 100 523L100 1135Q100 1269 126 1367.50Q152 1466 211 1538.50Q270 1611 370 1647.50Q470 1684 612 1684Q754 1684 854.50 1647.50Q955 1611 1014.50 1538.50Q1074 1466 1100.50 1367.50Q1127 1269 1127 1135L1127 523Q1127 389 1100.50 290.50Q1074 192 1014.50 119.50Q955 47 854.50 10.50M612 255Q645 255 666 269.50Q687 284 696 312Q705 340 707.50 363Q710 386 710 420L710 1239Q710 1273 707.50 1296Q705 1319 696 1346.50Q687 1374 666 1388.50Q645 1403 612 1403Q585 1403 566 1392Q547 1381 537.50 1366.50Q528 1352 523 1326.50Q518 1301 517.50 1284.50Q517 1268 517 1239L517 420Q517 392 517.50 375Q518 358 523 332.50Q528 307 537.50 292.50Q547 278 566 266.50Q585 255 612 255Z"  horiz-adv-x="1227" vert-adv-y="2048"  />

      
      <glyph glyph-name="unid5" unicode="&#xd5;" d="M816 1807Q810 1806 803 1806Q765 1806 714 1826Q654 1849 598.50 1875Q543 1901 514 1901Q455 1901 455 1817L285 1817Q285 1889 291.50 1939.50Q298 1990 315.50 2033Q333 2076 366.50 2099Q400 2122 452 2127Q465 2128 478 2128L564 2113Q620 2093 664 2069Q708 2045 724 2042Q758 2036 772.50 2057.50Q787 2079 787 2115L941 2115Q941 2055 937.50 2009.50Q934 1964 922 1915.50Q910 1867 883.50 1839Q857 1811 816 1807M854.50 10.50Q854.50 10.50 804.25-7.75Q754-26 612-26Q470-26 370 10.50Q270 47 211 119.50Q152 192 126 290.50Q100 389 100 523L100 1135Q100 1269 126 1367.50Q152 1466 211 1538.50Q270 1611 370 1647.50Q470 1684 612 1684Q754 1684 854.50 1647.50Q955 1611 1014.50 1538.50Q1074 1466 1100.50 1367.50Q1127 1269 1127 1135L1127 523Q1127 389 1100.50 290.50Q1074 192 1014.50 119.50Q955 47 854.50 10.50M612 255Q645 255 666 269.50Q687 284 696 312Q705 340 707.50 363Q710 386 710 420L710 1239Q710 1273 707.50 1296Q705 1319 696 1346.50Q687 1374 666 1388.50Q645 1403 612 1403Q585 1403 566 1392Q547 1381 537.50 1366.50Q528 1352 523 1326.50Q518 1301 517.50 1284.50Q517 1268 517 1239L517 420Q517 392 517.50 375Q518 358 523 332.50Q528 307 537.50 292.50Q547 278 566 266.50Q585 255 612 255Z"  horiz-adv-x="1227" vert-adv-y="2048"  />

      
      <glyph glyph-name="unid6" unicode="&#xd6;" d="M709 1806L709 2130L989 2130L989 1806L709 1806M239 1806L239 2130L518 2130L518 1806L239 1806M854.50 10.50Q854.50 10.50 804.25-7.75Q754-26 612-26Q470-26 370 10.50Q270 47 211 119.50Q152 192 126 290.50Q100 389 100 523L100 1135Q100 1269 126 1367.50Q152 1466 211 1538.50Q270 1611 370 1647.50Q470 1684 612 1684Q754 1684 854.50 1647.50Q955 1611 1014.50 1538.50Q1074 1466 1100.50 1367.50Q1127 1269 1127 1135L1127 523Q1127 389 1100.50 290.50Q1074 192 1014.50 119.50Q955 47 854.50 10.50M612 255Q645 255 666 269.50Q687 284 696 312Q705 340 707.50 363Q710 386 710 420L710 1239Q710 1273 707.50 1296Q705 1319 696 1346.50Q687 1374 666 1388.50Q645 1403 612 1403Q585 1403 566 1392Q547 1381 537.50 1366.50Q528 1352 523 1326.50Q518 1301 517.50 1284.50Q517 1268 517 1239L517 420Q517 392 517.50 375Q518 358 523 332.50Q528 307 537.50 292.50Q547 278 566 266.50Q585 255 612 255Z"  horiz-adv-x="1227" vert-adv-y="2048"  />

      
      <glyph glyph-name="unid7" unicode="&#xd7;" d="M278 448L114 611L366 864L114 1115L277 1279L530 1027L781 1279L945 1118L692 864L945 611L783 448L530 701L278 448Z"  horiz-adv-x="1057" vert-adv-y="2048"  />

      
      <glyph glyph-name="unid8" unicode="&#xd8;" d="M517 766L710 1243Q710 1268 708.50 1286.50Q707 1305 701.50 1329Q696 1353 686 1367.50Q676 1382 657 1392.50Q638 1403 612 1403Q585 1403 566 1392Q547 1381 537.50 1366.50Q528 1352 523 1326.50Q518 1301 517.50 1284.50Q517 1268 517 1239L517 766M612 255Q645 255 666 269.50Q687 284 696 312Q705 340 707.50 363Q710 386 710 420L710 1012L517 535L517 420Q517 392 517.50 375Q518 358 523 332.50Q528 307 537.50 292.50Q547 278 566 266.50Q585 255 612 255M221-195L142-160L242 87Q100 217 100 523L100 1135Q100 1269 126 1367.50Q152 1466 211 1538.50Q270 1611 370 1647.50Q470 1684 612 1684Q766 1684 871 1641L941 1813L1021 1779L948 1599Q1042 1533 1084.50 1417.50Q1127 1302 1127 1135L1127 523Q1127 389 1100.50 290.50Q1074 192 1014.50 119.50Q955 47 854.50 10.50Q754-26 612-26Q429-26 315 36L221-195Z"  horiz-adv-x="1189" vert-adv-y="2048"  />

      
      <glyph glyph-name="unid9" unicode="&#xd9;" d="M496 1806L229 2221L607 2221L734 1806L496 1806M615-26Q471-26 373 6.50Q275 39 217 107.50Q159 176 134.50 271Q110 366 110 501L110 1658L514 1658L514 433Q514 399 517 375Q520 351 529 322.50Q538 294 560 278.50Q582 263 615 263Q648 263 670 278.50Q692 294 701 322.50Q710 351 712.50 375Q715 399 715 433L715 1658L1120 1658L1120 501Q1120 366 1095 271Q1070 176 1012.50 107.50Q955 39 856.50 6.50Q758-26 615-26Z"  horiz-adv-x="1230" vert-adv-y="2048"  />

      
      <glyph glyph-name="unida" unicode="&#xda;" d="M496 1806L624 2221L1001 2221L734 1806L496 1806M615-26Q471-26 373 6.50Q275 39 217 107.50Q159 176 134.50 271Q110 366 110 501L110 1658L514 1658L514 433Q514 399 517 375Q520 351 529 322.50Q538 294 560 278.50Q582 263 615 263Q648 263 670 278.50Q692 294 701 322.50Q710 351 712.50 375Q715 399 715 433L715 1658L1120 1658L1120 501Q1120 366 1095 271Q1070 176 1012.50 107.50Q955 39 856.50 6.50Q758-26 615-26Z"  horiz-adv-x="1230" vert-adv-y="2048"  />

      
      <glyph glyph-name="unidb" unicode="&#xdb;" d="M269 1806L467 2209L755 2209L961 1806L694 1806L614 2050L536 1806L269 1806M615-26Q471-26 373 6.50Q275 39 217 107.50Q159 176 134.50 271Q110 366 110 501L110 1658L514 1658L514 433Q514 399 517 375Q520 351 529 322.50Q538 294 560 278.50Q582 263 615 263Q648 263 670 278.50Q692 294 701 322.50Q710 351 712.50 375Q715 399 715 433L715 1658L1120 1658L1120 501Q1120 366 1095 271Q1070 176 1012.50 107.50Q955 39 856.50 6.50Q758-26 615-26Z"  horiz-adv-x="1230" vert-adv-y="2048"  />

      
      <glyph glyph-name="unidc" unicode="&#xdc;" d="M710 1806L710 2130L990 2130L990 1806L710 1806M240 1806L240 2130L519 2130L519 1806L240 1806M615-26Q471-26 373 6.50Q275 39 217 107.50Q159 176 134.50 271Q110 366 110 501L110 1658L514 1658L514 433Q514 399 517 375Q520 351 529 322.50Q538 294 560 278.50Q582 263 615 263Q648 263 670 278.50Q692 294 701 322.50Q710 351 712.50 375Q715 399 715 433L715 1658L1120 1658L1120 501Q1120 366 1095 271Q1070 176 1012.50 107.50Q955 39 856.50 6.50Q758-26 615-26Z"  horiz-adv-x="1230" vert-adv-y="2048"  />

      
      <glyph glyph-name="unidd" unicode="&#xdd;" d="M390 1806L518 2221L895 2221L628 1806L390 1806M317 0L317 705L14 1658L397 1658L528 1214L637 1658L1004 1658L706 705L706 0L317 0Z"  horiz-adv-x="1018" vert-adv-y="2048"  />

      
      <glyph glyph-name="unide" unicode="&#xde;" d="M505 761L614 761Q711 761 751 807Q791 853 791 959Q791 1058 751.50 1104.50Q712 1151 619 1151L505 1151L505 761M99 0L99 1658L505 1658L505 1436L640 1436Q773 1436 867 1413Q961 1390 1027.50 1337Q1094 1284 1125.50 1196Q1157 1108 1157 981Q1157 878 1143 800Q1129 722 1099 667Q1069 612 1027.50 576Q986 540 924 519Q862 498 792.50 489.50Q723 481 628 480L505 479L505 0L99 0Z"  horiz-adv-x="1186" vert-adv-y="2048"  />

      
      <glyph glyph-name="unidf" unicode="&#xdf;" d="M554-34L554 240Q748 240 748 464Q748 487 746 512Q739 594 688.50 650Q638 706 576 706L573 984Q637 984 673 1043Q709 1102 709 1225Q709 1331 671 1385Q633 1439 579 1439Q469 1439 469 1241Q469 1229 469 1217L469 0L102 0L102 1217Q102 1287 116 1351.50Q130 1416 163 1478Q196 1540 245.50 1585.50Q295 1631 373 1658.50Q451 1686 549 1686Q1012 1686 1012 1232Q1012 979 758 882Q922 834 1016.50 720Q1111 606 1111 460Q1111 326 1072 229Q1033 132 958.50 75Q884 18 784.50-8Q685-34 554-34Z"  horiz-adv-x="1142" vert-adv-y="2048"  />

      
      <glyph glyph-name="unie0" unicode="&#xe0;" d="M381 1328L114 1743L492 1743L619 1328L381 1328M484 216Q529 216 563 262L563 584Q486 548 440.50 472.50Q395 397 395 335Q395 281 421 248.50Q447 216 484 216M357-22Q287-21 231 5.50Q175 32 140.50 74.50Q106 117 87.50 167.50Q69 218 69 271Q69 329 84 380Q99 431 122 468.50Q145 506 182 540Q219 574 253 596Q287 618 334 640.50Q381 663 414.50 675.50Q448 688 494.50 705.50Q541 723 563 732L563 860Q563 934 507 934Q476 934 464 914.50Q452 895 449 861L438 766L100 780L102 798Q103 816 103 817Q119 1016 228.50 1111Q338 1206 543 1206Q718 1206 814.50 1107.50Q911 1009 911 855L911 298Q911 243 914 189.50Q917 136 919 111.50Q921 87 926.50 44Q932 1 932 0L607 0Q581 161 580 165Q556 84 499 31Q442-22 357-22Z"  horiz-adv-x="1006" vert-adv-y="2048"  />

      
      <glyph glyph-name="unie1" unicode="&#xe1;" d="M381 1328L509 1743L886 1743L619 1328L381 1328M484 216Q529 216 563 262L563 584Q486 548 440.50 472.50Q395 397 395 335Q395 281 421 248.50Q447 216 484 216M357-22Q287-21 231 5.50Q175 32 140.50 74.50Q106 117 87.50 167.50Q69 218 69 271Q69 329 84 380Q99 431 122 468.50Q145 506 182 540Q219 574 253 596Q287 618 334 640.50Q381 663 414.50 675.50Q448 688 494.50 705.50Q541 723 563 732L563 860Q563 934 507 934Q476 934 464 914.50Q452 895 449 861L438 766L100 780L102 798Q103 816 103 817Q119 1016 228.50 1111Q338 1206 543 1206Q718 1206 814.50 1107.50Q911 1009 911 855L911 298Q911 243 914 189.50Q917 136 919 111.50Q921 87 926.50 44Q932 1 932 0L607 0Q581 161 580 165Q556 84 499 31Q442-22 357-22Z"  horiz-adv-x="1006" vert-adv-y="2048"  />

      
      <glyph glyph-name="unie2" unicode="&#xe2;" d="M154 1328L352 1731L640 1731L846 1328L579 1328L499 1572L421 1328L154 1328M484 216Q529 216 563 262L563 584Q486 548 440.50 472.50Q395 397 395 335Q395 281 421 248.50Q447 216 484 216M357-22Q287-21 231 5.50Q175 32 140.50 74.50Q106 117 87.50 167.50Q69 218 69 271Q69 329 84 380Q99 431 122 468.50Q145 506 182 540Q219 574 253 596Q287 618 334 640.50Q381 663 414.50 675.50Q448 688 494.50 705.50Q541 723 563 732L563 860Q563 934 507 934Q476 934 464 914.50Q452 895 449 861L438 766L100 780L102 798Q103 816 103 817Q119 1016 228.50 1111Q338 1206 543 1206Q718 1206 814.50 1107.50Q911 1009 911 855L911 298Q911 243 914 189.50Q917 136 919 111.50Q921 87 926.50 44Q932 1 932 0L607 0Q581 161 580 165Q556 84 499 31Q442-22 357-22Z"  horiz-adv-x="1006" vert-adv-y="2048"  />

      
      <glyph glyph-name="unie3" unicode="&#xe3;" d="M703 1329Q697 1328 690 1328Q652 1328 601 1348Q541 1371 485.50 1397Q430 1423 401 1423Q342 1423 342 1339L172 1339Q172 1411 178.50 1461.50Q185 1512 202.50 1555Q220 1598 253.50 1621Q287 1644 339 1649Q352 1650 365 1650L451 1635Q507 1615 551 1591Q595 1567 611 1564Q645 1558 659.50 1579.50Q674 1601 674 1637L828 1637Q828 1577 824.50 1531.50Q821 1486 809 1437.50Q797 1389 770.50 1361Q744 1333 703 1329M484 216Q529 216 563 262L563 584Q486 548 440.50 472.50Q395 397 395 335Q395 281 421 248.50Q447 216 484 216M357-22Q287-21 231 5.50Q175 32 140.50 74.50Q106 117 87.50 167.50Q69 218 69 271Q69 329 84 380Q99 431 122 468.50Q145 506 182 540Q219 574 253 596Q287 618 334 640.50Q381 663 414.50 675.50Q448 688 494.50 705.50Q541 723 563 732L563 860Q563 934 507 934Q476 934 464 914.50Q452 895 449 861L438 766L100 780L102 798Q103 816 103 817Q119 1016 228.50 1111Q338 1206 543 1206Q718 1206 814.50 1107.50Q911 1009 911 855L911 298Q911 243 914 189.50Q917 136 919 111.50Q921 87 926.50 44Q932 1 932 0L607 0Q581 161 580 165Q556 84 499 31Q442-22 357-22Z"  horiz-adv-x="1006" vert-adv-y="2048"  />

      
      <glyph glyph-name="unie4" unicode="&#xe4;" d="M595 1328L595 1652L875 1652L875 1328L595 1328M125 1328L125 1652L404 1652L404 1328L125 1328M484 216Q529 216 563 262L563 584Q486 548 440.50 472.50Q395 397 395 335Q395 281 421 248.50Q447 216 484 216M357-22Q287-21 231 5.50Q175 32 140.50 74.50Q106 117 87.50 167.50Q69 218 69 271Q69 329 84 380Q99 431 122 468.50Q145 506 182 540Q219 574 253 596Q287 618 334 640.50Q381 663 414.50 675.50Q448 688 494.50 705.50Q541 723 563 732L563 860Q563 934 507 934Q476 934 464 914.50Q452 895 449 861L438 766L100 780L102 798Q103 816 103 817Q119 1016 228.50 1111Q338 1206 543 1206Q718 1206 814.50 1107.50Q911 1009 911 855L911 298Q911 243 914 189.50Q917 136 919 111.50Q921 87 926.50 44Q932 1 932 0L607 0Q581 161 580 165Q556 84 499 31Q442-22 357-22Z"  horiz-adv-x="1006" vert-adv-y="2048"  />

      
      <glyph glyph-name="unie5" unicode="&#xe5;" d="M427 1478Q427 1478 440 1462.50Q453 1447 499 1447Q545 1447 570 1477.50Q595 1508 595 1552Q595 1595 570 1626Q545 1657 499 1657Q453 1657 427 1626Q401 1595 401 1552Q401 1509 427 1478M499 1328Q397 1328 327.50 1386.50Q258 1445 258 1552Q258 1660 327.50 1718Q397 1776 499 1776Q601 1776 671.50 1717.50Q742 1659 742 1552Q742 1445 672 1386.50Q602 1328 499 1328M484 216Q529 216 563 262L563 584Q486 548 440.50 472.50Q395 397 395 335Q395 281 421 248.50Q447 216 484 216M357-22Q287-21 231 5.50Q175 32 140.50 74.50Q106 117 87.50 167.50Q69 218 69 271Q69 329 84 380Q99 431 122 468.50Q145 506 182 540Q219 574 253 596Q287 618 334 640.50Q381 663 414.50 675.50Q448 688 494.50 705.50Q541 723 563 732L563 860Q563 934 507 934Q476 934 464 914.50Q452 895 449 861L438 766L100 780L102 798Q103 816 103 817Q119 1016 228.50 1111Q338 1206 543 1206Q718 1206 814.50 1107.50Q911 1009 911 855L911 298Q911 243 914 189.50Q917 136 919 111.50Q921 87 926.50 44Q932 1 932 0L607 0Q581 161 580 165Q556 84 499 31Q442-22 357-22Z"  horiz-adv-x="1006" vert-adv-y="2048"  />

      
      <glyph glyph-name="unie6" unicode="&#xe6;" d="M890 761Q958 771 990 803Q1032 842 1032 918Q1032 966 1014.50 991Q997 1016 971 1016Q939 1016 914.50 983.50Q890 951 890 899L890 761M464 216Q505 216 527.50 238Q550 260 550 322L548 547Q515 535 492 520Q432 481 407.50 421Q383 361 383 318Q383 284 402.50 250Q422 216 464 216M396-27Q256-26 162.50 53.50Q69 133 69 282Q69 376 96 446.50Q123 517 172.50 560Q222 603 274 627.50Q326 652 393 668Q422 675 547 698L547 843Q547 893 531.50 911.50Q516 930 489 930Q460 930 443 902Q426 874 426 789L72 789Q72 798 72 807Q72 1014 164 1126Q260 1244 456 1244Q551 1244 619 1198Q687 1152 705 1083Q729 1152 805 1197.50Q881 1243 976 1243Q1062 1243 1132.50 1215.50Q1203 1188 1245 1143.50Q1287 1099 1309 1047.50Q1331 996 1331 944Q1331 886 1312 838.50Q1293 791 1263 757.50Q1233 724 1187.50 697Q1142 670 1096.50 653.50Q1051 637 995 623Q961 615 891 602L891 353Q891 285 900 257.50Q909 230 940 230Q960 230 970 244Q980 258 981 273Q982 288 982 325Q982 339 982 346L982 414L1315 414L1315 305Q1315 146 1226 60Q1137-26 973-27Q888-27 803 17Q718 61 698 139Q663 60 576.50 16.50Q490-27 396-27Z"  horiz-adv-x="1404" vert-adv-y="2048"  />

      
      <glyph glyph-name="unie7" unicode="&#xe7;" d="M355-567L355-414Q393-425 449-429Q462-430 475-430Q516-430 554-420Q604-408 604-375Q604-317 542.50-287.50Q481-258 411-257L411 0L537 0L537-141Q664-142 748.50-201.50Q833-261 834-356Q834-438 788-494Q742-548 670-570Q600-591 519-592Q517-592 515-592Q433-592 355-567M506-22Q315-22 196.50 78Q78 178 78 353L78 833Q78 1008 196 1107Q314 1206 506 1206Q699 1206 813.50 1116.50Q928 1027 928 854L928 712L570 712L570 866Q570 920 553.50 939Q537 958 506 958Q447 958 447 856L447 330Q447 228 506 228Q536 228 553 247Q570 266 570 320L570 494L928 494L928 332Q928 159 813 68.50Q698-22 506-22Z"  horiz-adv-x="994" vert-adv-y="2048"  />

      
      <glyph glyph-name="unie8" unicode="&#xe8;" d="M379 1328L112 1743L490 1743L617 1328L379 1328M441 733L582 733L582 854Q582 946 506 946Q441 946 441 844L441 733M807.50 68.50Q807.50 68.50 752.25 23.25Q697-22 506-22Q315-22 196.50 78Q78 178 78 353L78 831Q78 1006 196.50 1106Q315 1206 506 1206Q699 1206 808.50 1114Q918 1022 918 846L918 567L441 567L441 341Q441 287 459.50 262.50Q478 238 506 238Q582 238 582 330L582 424L918 424L918 333Q918 159 807.50 68.50Z"  horiz-adv-x="991" vert-adv-y="2048"  />

      
      <glyph glyph-name="unie9" unicode="&#xe9;" d="M379 1328L507 1743L884 1743L617 1328L379 1328M441 733L582 733L582 854Q582 946 506 946Q441 946 441 844L441 733M807.50 68.50Q807.50 68.50 752.25 23.25Q697-22 506-22Q315-22 196.50 78Q78 178 78 353L78 831Q78 1006 196.50 1106Q315 1206 506 1206Q699 1206 808.50 1114Q918 1022 918 846L918 567L441 567L441 341Q441 287 459.50 262.50Q478 238 506 238Q582 238 582 330L582 424L918 424L918 333Q918 159 807.50 68.50Z"  horiz-adv-x="991" vert-adv-y="2048"  />

      
      <glyph glyph-name="uniea" unicode="&#xea;" d="M152 1328L350 1731L638 1731L844 1328L577 1328L497 1572L419 1328L152 1328M441 733L582 733L582 854Q582 946 506 946Q441 946 441 844L441 733M807.50 68.50Q807.50 68.50 752.25 23.25Q697-22 506-22Q315-22 196.50 78Q78 178 78 353L78 831Q78 1006 196.50 1106Q315 1206 506 1206Q699 1206 808.50 1114Q918 1022 918 846L918 567L441 567L441 341Q441 287 459.50 262.50Q478 238 506 238Q582 238 582 330L582 424L918 424L918 333Q918 159 807.50 68.50Z"  horiz-adv-x="991" vert-adv-y="2048"  />

      
      <glyph glyph-name="unieb" unicode="&#xeb;" d="M593 1328L593 1652L873 1652L873 1328L593 1328M123 1328L123 1652L402 1652L402 1328L123 1328M441 733L582 733L582 854Q582 946 506 946Q441 946 441 844L441 733M807.50 68.50Q807.50 68.50 752.25 23.25Q697-22 506-22Q315-22 196.50 78Q78 178 78 353L78 831Q78 1006 196.50 1106Q315 1206 506 1206Q699 1206 808.50 1114Q918 1022 918 846L918 567L441 567L441 341Q441 287 459.50 262.50Q478 238 506 238Q582 238 582 330L582 424L918 424L918 333Q918 159 807.50 68.50Z"  horiz-adv-x="991" vert-adv-y="2048"  />

      
      <glyph glyph-name="uniec" unicode="&#xec;" d="M185 1328L-82 1743L296 1743L423 1328L185 1328M120 0L120 1184L487 1184L487 0L120 0Z"  horiz-adv-x="606" vert-adv-y="2048"  />

      
      <glyph glyph-name="unied" unicode="&#xed;" d="M185 1328L313 1743L690 1743L423 1328L185 1328M120 0L120 1184L487 1184L487 0L120 0Z"  horiz-adv-x="606" vert-adv-y="2048"  />

      
      <glyph glyph-name="uniee" unicode="&#xee;" d="M-42 1328L156 1731L444 1731L650 1328L383 1328L303 1572L225 1328L-42 1328M120 0L120 1184L487 1184L487 0L120 0Z"  horiz-adv-x="606" vert-adv-y="2048"  />

      
      <glyph glyph-name="unief" unicode="&#xef;" d="M399 1328L399 1652L679 1652L679 1328L399 1328M-71 1328L-71 1652L208 1652L208 1328L-71 1328M120 0L120 1184L487 1184L487 0L120 0Z"  horiz-adv-x="606" vert-adv-y="2048"  />

      
      <glyph glyph-name="unif0" unicode="&#xf0;" d="M469 594Q469 343 478 286Q489 216 528 206Q537 203 549 203Q591 203 608.50 234Q626 265 626 328L626 971Q592 980 572 980Q538 980 518.50 964.50Q499 949 487.50 902Q476 855 472.50 786.50Q469 718 469 594M993 429Q993 317 968 232.50Q943 148 902.50 98.50Q862 49 802 18.50Q742-12 682.50-22.50Q623-33 550-33Q461-33 385-8.50Q309 16 246 67.50Q183 119 146.50 210.50Q110 302 110 424L110 831Q110 918 143.50 991Q177 1064 231 1110Q285 1156 350.50 1181Q416 1206 483 1206Q563 1206 626 1180Q626 1255 613.50 1311.50Q601 1368 583 1388L426 1290L377 1365L533 1462Q516 1486 457 1501Q398 1516 313 1516L330 1742Q661 1742 791 1620L950 1724L998 1647L851 1552Q993 1354 993 947L993 429Z"  horiz-adv-x="1093" vert-adv-y="2048"  />

      
      <glyph glyph-name="unif1" unicode="&#xf1;" d="M747 1329Q741 1328 734 1328Q696 1328 645 1348Q585 1371 529.50 1397Q474 1423 445 1423Q386 1423 386 1339L216 1339Q216 1411 222.50 1461.50Q229 1512 246.50 1555Q264 1598 297.50 1621Q331 1644 383 1649Q396 1650 409 1650L495 1635Q551 1615 595 1591Q639 1567 655 1564Q689 1558 703.50 1579.50Q718 1601 718 1637L872 1637Q872 1577 868.50 1531.50Q865 1486 853 1437.50Q841 1389 814.50 1361Q788 1333 747 1329M102 0L102 1184L469 1184L469 1065Q610 1206 754 1206Q862 1206 924 1127.50Q986 1049 986 919L986 0L619 0L619 876Q619 915 606 933.50Q593 952 561 951Q518 947 469 917L469 0L102 0Z"  horiz-adv-x="1080" vert-adv-y="2048"  />

      
      <glyph glyph-name="unif2" unicode="&#xf2;" d="M393 1328L126 1743L504 1743L631 1328L393 1328M510-22Q315-22 196.50 73Q78 168 78 352L78 832Q78 1016 196.50 1111Q315 1206 510 1206Q706 1206 826.50 1111Q947 1016 947 832L947 352Q947 258 914 186Q881 114 821.50 69Q762 24 683.50 1Q605-22 510-22M511 218Q549 218 567.50 243.50Q586 269 586 326L586 858Q586 915 567.50 940.50Q549 966 511 966Q439 966 439 858L439 326Q439 218 511 218Z"  horiz-adv-x="1025" vert-adv-y="2048"  />

      
      <glyph glyph-name="unif3" unicode="&#xf3;" d="M393 1328L521 1743L898 1743L631 1328L393 1328M510-22Q315-22 196.50 73Q78 168 78 352L78 832Q78 1016 196.50 1111Q315 1206 510 1206Q706 1206 826.50 1111Q947 1016 947 832L947 352Q947 258 914 186Q881 114 821.50 69Q762 24 683.50 1Q605-22 510-22M511 218Q549 218 567.50 243.50Q586 269 586 326L586 858Q586 915 567.50 940.50Q549 966 511 966Q439 966 439 858L439 326Q439 218 511 218Z"  horiz-adv-x="1025" vert-adv-y="2048"  />

      
      <glyph glyph-name="unif4" unicode="&#xf4;" d="M166 1328L364 1731L652 1731L858 1328L591 1328L511 1572L433 1328L166 1328M510-22Q315-22 196.50 73Q78 168 78 352L78 832Q78 1016 196.50 1111Q315 1206 510 1206Q706 1206 826.50 1111Q947 1016 947 832L947 352Q947 258 914 186Q881 114 821.50 69Q762 24 683.50 1Q605-22 510-22M511 218Q549 218 567.50 243.50Q586 269 586 326L586 858Q586 915 567.50 940.50Q549 966 511 966Q439 966 439 858L439 326Q439 218 511 218Z"  horiz-adv-x="1025" vert-adv-y="2048"  />

      
      <glyph glyph-name="unif5" unicode="&#xf5;" d="M715 1329Q709 1328 702 1328Q664 1328 613 1348Q553 1371 497.50 1397Q442 1423 413 1423Q354 1423 354 1339L184 1339Q184 1411 190.50 1461.50Q197 1512 214.50 1555Q232 1598 265.50 1621Q299 1644 351 1649Q364 1650 377 1650L463 1635Q519 1615 563 1591Q607 1567 623 1564Q657 1558 671.50 1579.50Q686 1601 686 1637L840 1637Q840 1577 836.50 1531.50Q833 1486 821 1437.50Q809 1389 782.50 1361Q756 1333 715 1329M510-22Q315-22 196.50 73Q78 168 78 352L78 832Q78 1016 196.50 1111Q315 1206 510 1206Q706 1206 826.50 1111Q947 1016 947 832L947 352Q947 258 914 186Q881 114 821.50 69Q762 24 683.50 1Q605-22 510-22M511 218Q549 218 567.50 243.50Q586 269 586 326L586 858Q586 915 567.50 940.50Q549 966 511 966Q439 966 439 858L439 326Q439 218 511 218Z"  horiz-adv-x="1025" vert-adv-y="2048"  />

      
      <glyph glyph-name="unif6" unicode="&#xf6;" d="M607 1328L607 1652L887 1652L887 1328L607 1328M137 1328L137 1652L416 1652L416 1328L137 1328M510-22Q315-22 196.50 73Q78 168 78 352L78 832Q78 1016 196.50 1111Q315 1206 510 1206Q706 1206 826.50 1111Q947 1016 947 832L947 352Q947 258 914 186Q881 114 821.50 69Q762 24 683.50 1Q605-22 510-22M511 218Q549 218 567.50 243.50Q586 269 586 326L586 858Q586 915 567.50 940.50Q549 966 511 966Q439 966 439 858L439 326Q439 218 511 218Z"  horiz-adv-x="1025" vert-adv-y="2048"  />

      
      <glyph glyph-name="unif7" unicode="&#xf7;" d="M407 1089L407 1350L621 1350L621 1089L407 1089M82 771L82 955L918 955L918 771L82 771M407 364L407 625L621 625L621 364L407 364Z"  horiz-adv-x="1000" vert-adv-y="2048"  />

      
      <glyph glyph-name="unif8" unicode="&#xf8;" d="M439 575L580 914Q565 966 511 966Q439 966 439 858L439 575M511 218Q549 218 567.50 243.50Q586 269 586 326L586 705L439 352L439 326Q439 218 511 218M218-178L140-144L222 54Q78 151 78 352L78 832Q78 1016 196.50 1111Q315 1206 510 1206Q610 1206 691 1181L774 1381L853 1346L771 1148Q855 1103 901 1023.50Q947 944 947 832L947 352Q947 258 914 186Q881 114 821.50 69Q762 24 683.50 1Q605-22 510-22Q390-22 298 14L218-178Z"  horiz-adv-x="1010" vert-adv-y="2048"  />

      
      <glyph glyph-name="unif9" unicode="&#xf9;" d="M409 1328L142 1743L520 1743L647 1328L409 1328M322-22Q215-22 153 56.50Q91 135 91 265L91 1184L457 1184L457 294Q457 220 514 220Q516 220 519 220Q554 222 600 246L600 1184L966 1184L966 0L600 0L600 107Q463-22 322-22Z"  horiz-adv-x="1069" vert-adv-y="2048"  />

      
      <glyph glyph-name="unifa" unicode="&#xfa;" d="M409 1328L537 1743L914 1743L647 1328L409 1328M322-22Q215-22 153 56.50Q91 135 91 265L91 1184L457 1184L457 294Q457 220 514 220Q516 220 519 220Q554 222 600 246L600 1184L966 1184L966 0L600 0L600 107Q463-22 322-22Z"  horiz-adv-x="1069" vert-adv-y="2048"  />

      
      <glyph glyph-name="unifb" unicode="&#xfb;" d="M182 1328L380 1731L668 1731L874 1328L607 1328L527 1572L449 1328L182 1328M322-22Q215-22 153 56.50Q91 135 91 265L91 1184L457 1184L457 294Q457 220 514 220Q516 220 519 220Q554 222 600 246L600 1184L966 1184L966 0L600 0L600 107Q463-22 322-22Z"  horiz-adv-x="1069" vert-adv-y="2048"  />

      
      <glyph glyph-name="unifc" unicode="&#xfc;" d="M623 1328L623 1652L903 1652L903 1328L623 1328M153 1328L153 1652L432 1652L432 1328L153 1328M322-22Q215-22 153 56.50Q91 135 91 265L91 1184L457 1184L457 294Q457 220 514 220Q516 220 519 220Q554 222 600 246L600 1184L966 1184L966 0L600 0L600 107Q463-22 322-22Z"  horiz-adv-x="1069" vert-adv-y="2048"  />

      
      <glyph glyph-name="unifd" unicode="&#xfd;" d="M345 1328L473 1743L850 1743L583 1328L345 1328M150-358L150-109Q198-109 227.50-106Q257-103 284-92.50Q311-82 322.50-60.50Q334-39 334-4Q334 38 290 190Q286 204 144 689.50Q2 1175 0 1184L341 1184L488 558L588 1184L929 1184L651-65Q632-150 587.50-210Q543-270 480-302Q418-333 350-346Q287-358 214-358Q208-358 203-358L150-358Z"  horiz-adv-x="951" vert-adv-y="2048"  />

      
      <glyph glyph-name="unife" unicode="&#xfe;" d="M525 206Q559 205 579 228Q599 251 599 286L599 918Q599 954 578.50 977.50Q558 1001 524 997Q496 992 456 963L456 230Q497 206 525 206M89-390L89 1658L456 1658L456 1100Q581 1206 709 1206Q715 1206 720 1206Q840 1201 903.50 1119.50Q967 1038 967 885L967 310Q967 153 899.50 65.50Q832-22 719-22Q591-22 456 89L456-390L89-390Z"  horiz-adv-x="1039" vert-adv-y="2048"  />

      
      <glyph glyph-name="uniff" unicode="&#xff;" d="M559 1328L559 1652L839 1652L839 1328L559 1328M89 1328L89 1652L368 1652L368 1328L89 1328M150-358L150-109Q198-109 227.50-106Q257-103 284-92.50Q311-82 322.50-60.50Q334-39 334-4Q334 38 290 190Q286 204 144 689.50Q2 1175 0 1184L341 1184L488 558L588 1184L929 1184L651-65Q632-150 587.50-210Q543-270 480-302Q418-333 350-346Q287-358 214-358Q208-358 203-358L150-358Z"  horiz-adv-x="951" vert-adv-y="2048"  />

      
      <glyph glyph-name="uni0100" unicode="&#x0100;" d="M275 1806L275 1968L888 1968L888 1806L275 1806M511 565L660 565L585 1184L511 565M46 0L347 1658L819 1658L1117 0L746 0L694 331L479 331L429 0L46 0Z"  horiz-adv-x="1164" vert-adv-y="2048"  />

      
      <glyph glyph-name="uni0101" unicode="&#x0101;" d="M194 1328L194 1490L807 1490L807 1328L194 1328M484 216Q529 216 563 262L563 584Q486 548 440.50 472.50Q395 397 395 335Q395 281 421 248.50Q447 216 484 216M357-22Q287-21 231 5.50Q175 32 140.50 74.50Q106 117 87.50 167.50Q69 218 69 271Q69 329 84 380Q99 431 122 468.50Q145 506 182 540Q219 574 253 596Q287 618 334 640.50Q381 663 414.50 675.50Q448 688 494.50 705.50Q541 723 563 732L563 860Q563 934 507 934Q476 934 464 914.50Q452 895 449 861L438 766L100 780L102 798Q103 816 103 817Q119 1016 228.50 1111Q338 1206 543 1206Q718 1206 814.50 1107.50Q911 1009 911 855L911 298Q911 243 914 189.50Q917 136 919 111.50Q921 87 926.50 44Q932 1 932 0L607 0Q581 161 580 165Q556 84 499 31Q442-22 357-22Z"  horiz-adv-x="1006" vert-adv-y="2048"  />

      
      <glyph glyph-name="uni0102" unicode="&#x0102;" d="M791 1867.50Q791 1867.50 751.50 1836.75Q712 1806 581 1806Q450 1806 371 1867Q292 1928 292 2044L441 2044Q441 1992 474 1968Q507 1944 581 1944Q655 1944 688.50 1968.50Q722 1993 722 2044L870 2044Q870 1929 791 1867.50M511 565L660 565L585 1184L511 565M46 0L347 1658L819 1658L1117 0L746 0L694 331L479 331L429 0L46 0Z"  horiz-adv-x="1164" vert-adv-y="2048"  />

      
      <glyph glyph-name="uni0103" unicode="&#x0103;" d="M711 1389.50Q711 1389.50 671.50 1358.75Q632 1328 501 1328Q370 1328 291 1389Q212 1450 212 1566L361 1566Q361 1514 394 1490Q427 1466 501 1466Q575 1466 608.50 1490.50Q642 1515 642 1566L790 1566Q790 1451 711 1389.50M484 216Q529 216 563 262L563 584Q486 548 440.50 472.50Q395 397 395 335Q395 281 421 248.50Q447 216 484 216M357-22Q287-21 231 5.50Q175 32 140.50 74.50Q106 117 87.50 167.50Q69 218 69 271Q69 329 84 380Q99 431 122 468.50Q145 506 182 540Q219 574 253 596Q287 618 334 640.50Q381 663 414.50 675.50Q448 688 494.50 705.50Q541 723 563 732L563 860Q563 934 507 934Q476 934 464 914.50Q452 895 449 861L438 766L100 780L102 798Q103 816 103 817Q119 1016 228.50 1111Q338 1206 543 1206Q718 1206 814.50 1107.50Q911 1009 911 855L911 298Q911 243 914 189.50Q917 136 919 111.50Q921 87 926.50 44Q932 1 932 0L607 0Q581 161 580 165Q556 84 499 31Q442-22 357-22Z"  horiz-adv-x="1006" vert-adv-y="2048"  />

      
      <glyph glyph-name="uni0104" unicode="&#x0104;" d="M1071-527Q1051-529 1028-529Q1011-529 992-528Q948-525 903-520.50Q858-516 815.50-499.50Q773-483 740-459Q707-435 687-392.50Q667-350 667-295Q667-217 704.50-130.50Q742-44 806 20L968 20Q965 0 943-90.50Q921-181 921-233Q921-262 930-283.50Q939-305 957-317Q975-329 990-336.50Q1005-344 1031-346.50Q1057-349 1067.50-349.50Q1078-350 1100-350L1071-527M511 565L660 565L585 1184L511 565M46 0L347 1658L819 1658L1117 0L746 0L694 331L479 331L429 0L46 0Z"  horiz-adv-x="1164" vert-adv-y="2048"  />

      
      <glyph glyph-name="uni0105" unicode="&#x0105;" d="M921-527Q901-529 878-529Q861-529 842-528Q798-525 753-520.50Q708-516 665.50-499.50Q623-483 590-459Q557-435 537-392.50Q517-350 517-295Q517-217 554.50-130.50Q592-44 656 20L818 20Q815 0 793-90.50Q771-181 771-233Q771-262 780-283.50Q789-305 807-317Q825-329 840-336.50Q855-344 881-346.50Q907-349 917.50-349.50Q928-350 950-350L921-527M484 216Q529 216 563 262L563 584Q486 548 440.50 472.50Q395 397 395 335Q395 281 421 248.50Q447 216 484 216M357-22Q287-21 231 5.50Q175 32 140.50 74.50Q106 117 87.50 167.50Q69 218 69 271Q69 329 84 380Q99 431 122 468.50Q145 506 182 540Q219 574 253 596Q287 618 334 640.50Q381 663 414.50 675.50Q448 688 494.50 705.50Q541 723 563 732L563 860Q563 934 507 934Q476 934 464 914.50Q452 895 449 861L438 766L100 780L102 798Q103 816 103 817Q119 1016 228.50 1111Q338 1206 543 1206Q718 1206 814.50 1107.50Q911 1009 911 855L911 298Q911 243 914 189.50Q917 136 919 111.50Q921 87 926.50 44Q932 1 932 0L607 0Q581 161 580 165Q556 84 499 31Q442-22 357-22Z"  horiz-adv-x="1006" vert-adv-y="2048"  />

      
      <glyph glyph-name="uni0106" unicode="&#x0106;" d="M485 1806L613 2221L990 2221L723 1806L485 1806M613-26Q471-26 370.50 11.50Q270 49 211.50 123Q153 197 126.50 296Q100 395 100 529L100 1128Q100 1263 126.50 1362Q153 1461 211.50 1535Q270 1609 370.50 1646.50Q471 1684 613 1684Q726 1684 812 1660.50Q898 1637 953.50 1595.50Q1009 1554 1044 1492.50Q1079 1431 1093.50 1361Q1108 1291 1108 1205L1108 1056L709 1056L709 1238Q709 1274 707 1295.50Q705 1317 696.50 1345.50Q688 1374 667 1388.50Q646 1403 613 1403Q586 1403 566.50 1392Q547 1381 537 1366Q527 1351 521.50 1326Q516 1301 514.50 1282Q513 1263 513 1237L513 421Q513 395 514.50 375.50Q516 356 522 331.50Q528 307 538 291.50Q548 276 567.50 265.50Q587 255 613 255Q646 255 667 269.50Q688 284 696.50 313Q705 342 707 363.50Q709 385 709 421L709 611L1108 611L1108 463Q1108 376 1093.50 305.50Q1079 235 1044 172Q1009 109 953.50 66.50Q898 24 812-1Q726-26 613-26Z"  horiz-adv-x="1181" vert-adv-y="2048"  />

      
      <glyph glyph-name="uni0107" unicode="&#x0107;" d="M384 1328L512 1743L889 1743L622 1328L384 1328M506-22Q315-22 196.50 78Q78 178 78 353L78 833Q78 1008 196 1107Q314 1206 506 1206Q699 1206 813.50 1116.50Q928 1027 928 854L928 712L570 712L570 866Q570 920 553.50 939Q537 958 506 958Q447 958 447 856L447 330Q447 228 506 228Q536 228 553 247Q570 266 570 320L570 494L928 494L928 332Q928 159 813 68.50Q698-22 506-22Z"  horiz-adv-x="994" vert-adv-y="2048"  />

      
      <glyph glyph-name="uni0108" unicode="&#x0108;" d="M258 1806L456 2209L744 2209L950 1806L683 1806L603 2050L525 1806L258 1806M613-26Q471-26 370.50 11.50Q270 49 211.50 123Q153 197 126.50 296Q100 395 100 529L100 1128Q100 1263 126.50 1362Q153 1461 211.50 1535Q270 1609 370.50 1646.50Q471 1684 613 1684Q726 1684 812 1660.50Q898 1637 953.50 1595.50Q1009 1554 1044 1492.50Q1079 1431 1093.50 1361Q1108 1291 1108 1205L1108 1056L709 1056L709 1238Q709 1274 707 1295.50Q705 1317 696.50 1345.50Q688 1374 667 1388.50Q646 1403 613 1403Q586 1403 566.50 1392Q547 1381 537 1366Q527 1351 521.50 1326Q516 1301 514.50 1282Q513 1263 513 1237L513 421Q513 395 514.50 375.50Q516 356 522 331.50Q528 307 538 291.50Q548 276 567.50 265.50Q587 255 613 255Q646 255 667 269.50Q688 284 696.50 313Q705 342 707 363.50Q709 385 709 421L709 611L1108 611L1108 463Q1108 376 1093.50 305.50Q1079 235 1044 172Q1009 109 953.50 66.50Q898 24 812-1Q726-26 613-26Z"  horiz-adv-x="1181" vert-adv-y="2048"  />

      
      <glyph glyph-name="uni0109" unicode="&#x0109;" d="M157 1328L355 1731L643 1731L849 1328L582 1328L502 1572L424 1328L157 1328M506-22Q315-22 196.50 78Q78 178 78 353L78 833Q78 1008 196 1107Q314 1206 506 1206Q699 1206 813.50 1116.50Q928 1027 928 854L928 712L570 712L570 866Q570 920 553.50 939Q537 958 506 958Q447 958 447 856L447 330Q447 228 506 228Q536 228 553 247Q570 266 570 320L570 494L928 494L928 332Q928 159 813 68.50Q698-22 506-22Z"  horiz-adv-x="994" vert-adv-y="2048"  />

      
      <glyph glyph-name="uni010A" unicode="&#x010A;" d="M432 1806L432 2142L776 2142L776 1806L432 1806M613-26Q471-26 370.50 11.50Q270 49 211.50 123Q153 197 126.50 296Q100 395 100 529L100 1128Q100 1263 126.50 1362Q153 1461 211.50 1535Q270 1609 370.50 1646.50Q471 1684 613 1684Q726 1684 812 1660.50Q898 1637 953.50 1595.50Q1009 1554 1044 1492.50Q1079 1431 1093.50 1361Q1108 1291 1108 1205L1108 1056L709 1056L709 1238Q709 1274 707 1295.50Q705 1317 696.50 1345.50Q688 1374 667 1388.50Q646 1403 613 1403Q586 1403 566.50 1392Q547 1381 537 1366Q527 1351 521.50 1326Q516 1301 514.50 1282Q513 1263 513 1237L513 421Q513 395 514.50 375.50Q516 356 522 331.50Q528 307 538 291.50Q548 276 567.50 265.50Q587 255 613 255Q646 255 667 269.50Q688 284 696.50 313Q705 342 707 363.50Q709 385 709 421L709 611L1108 611L1108 463Q1108 376 1093.50 305.50Q1079 235 1044 172Q1009 109 953.50 66.50Q898 24 812-1Q726-26 613-26Z"  horiz-adv-x="1181" vert-adv-y="2048"  />

      
      <glyph glyph-name="uni010B" unicode="&#x010B;" d="M331 1328L331 1664L675 1664L675 1328L331 1328M506-22Q315-22 196.50 78Q78 178 78 353L78 833Q78 1008 196 1107Q314 1206 506 1206Q699 1206 813.50 1116.50Q928 1027 928 854L928 712L570 712L570 866Q570 920 553.50 939Q537 958 506 958Q447 958 447 856L447 330Q447 228 506 228Q536 228 553 247Q570 266 570 320L570 494L928 494L928 332Q928 159 813 68.50Q698-22 506-22Z"  horiz-adv-x="994" vert-adv-y="2048"  />

      
      <glyph glyph-name="uni010C" unicode="&#x010C;" d="M426 1806L249 2194L505 2194L601 1976L702 2194L959 2194L775 1806L426 1806M613-26Q471-26 370.50 11.50Q270 49 211.50 123Q153 197 126.50 296Q100 395 100 529L100 1128Q100 1263 126.50 1362Q153 1461 211.50 1535Q270 1609 370.50 1646.50Q471 1684 613 1684Q726 1684 812 1660.50Q898 1637 953.50 1595.50Q1009 1554 1044 1492.50Q1079 1431 1093.50 1361Q1108 1291 1108 1205L1108 1056L709 1056L709 1238Q709 1274 707 1295.50Q705 1317 696.50 1345.50Q688 1374 667 1388.50Q646 1403 613 1403Q586 1403 566.50 1392Q547 1381 537 1366Q527 1351 521.50 1326Q516 1301 514.50 1282Q513 1263 513 1237L513 421Q513 395 514.50 375.50Q516 356 522 331.50Q528 307 538 291.50Q548 276 567.50 265.50Q587 255 613 255Q646 255 667 269.50Q688 284 696.50 313Q705 342 707 363.50Q709 385 709 421L709 611L1108 611L1108 463Q1108 376 1093.50 305.50Q1079 235 1044 172Q1009 109 953.50 66.50Q898 24 812-1Q726-26 613-26Z"  horiz-adv-x="1181" vert-adv-y="2048"  />

      
      <glyph glyph-name="uni010D" unicode="&#x010D;" d="M325 1328L148 1716L404 1716L500 1498L601 1716L858 1716L674 1328L325 1328M506-22Q315-22 196.50 78Q78 178 78 353L78 833Q78 1008 196 1107Q314 1206 506 1206Q699 1206 813.50 1116.50Q928 1027 928 854L928 712L570 712L570 866Q570 920 553.50 939Q537 958 506 958Q447 958 447 856L447 330Q447 228 506 228Q536 228 553 247Q570 266 570 320L570 494L928 494L928 332Q928 159 813 68.50Q698-22 506-22Z"  horiz-adv-x="994" vert-adv-y="2048"  />

      
      <glyph glyph-name="uni010E" unicode="&#x010E;" d="M449 1806L272 2194L528 2194L624 1976L725 2194L982 2194L798 1806L449 1806M120 0L120 1658L557 1658Q728 1658 838.50 1629.50Q949 1601 1015 1535Q1081 1469 1107.50 1372.50Q1134 1276 1134 1129L1134 531Q1134 383 1107.50 286.50Q1081 190 1015 123.50Q949 57 838.50 28.50Q728 0 558 0L120 0M526 280L564 280Q616 280 646.50 288.50Q677 297 692.50 319Q708 341 712.50 367.50Q717 394 717 442L717 1220Q717 1268 712.50 1294Q708 1320 692.50 1341Q677 1362 646.50 1370Q616 1378 564 1378L526 1378L526 280Z"  horiz-adv-x="1234" vert-adv-y="2048"  />

      
      <glyph glyph-name="uni010F" unicode="&#x010F;" d="M525 203Q555 203 599 229L599 968Q563 987 529 987Q493 987 474 961.50Q455 936 455 892L455 287Q455 252 474 227.50Q493 203 525 203M353-22Q227-22 156.50 64.50Q86 151 86 309L86 874Q86 1026 159 1116Q232 1206 356 1206Q486 1206 599 1111L599 1658L966 1658L966 0L599 0L599 96Q478-22 353-22Z"  horiz-adv-x="1268" vert-adv-y="2048"  />

      
      <glyph glyph-name="uni0110" unicode="&#x0110;" d="M131 0L131 757L24 757L24 936L131 936L131 1658L568 1658Q739 1658 849.50 1629.50Q960 1601 1026 1535Q1092 1469 1118.50 1372.50Q1145 1276 1145 1129L1145 531Q1145 383 1118.50 286.50Q1092 190 1026 123.50Q960 57 849.50 28.50Q739 0 569 0L131 0M525 280L584 280Q636 280 667 288.50Q698 297 713 319Q728 341 732.50 367.50Q737 394 737 442L737 1220Q737 1268 732.50 1294Q728 1320 712.50 1341Q697 1362 666.50 1370Q636 1378 584 1378L525 1378L525 936L619 936L619 757L525 757L525 280Z"  horiz-adv-x="1244" vert-adv-y="2048"  />

      
      <glyph glyph-name="uni0111" unicode="&#x0111;" d="M517 203Q542 203 586 229L586 968Q550 987 521 987Q485 987 466 961.50Q447 936 447 892L447 287Q447 252 466 227.50Q485 203 517 203M346-22Q219-22 148.50 64.50Q78 151 78 309L78 874Q78 1026 151 1116Q224 1206 348 1206Q473 1206 586 1111L586 1395L300 1395L300 1533L586 1533L586 1658L953 1658L953 1533L1046 1533L1046 1395L953 1395L953 0L586 0L586 96Q466-22 346-22Z"  horiz-adv-x="1051" vert-adv-y="2048"  />

      
      <glyph glyph-name="uni0112" unicode="&#x0112;" d="M204 1806L204 1968L817 1968L817 1806L204 1806M120 0L120 1658L896 1658L896 1386L526 1386L526 1016L802 1016L802 734L526 734L526 271L900 271L900 0L120 0Z"  horiz-adv-x="941" vert-adv-y="2048"  />

      
      </font>
</defs>
</svg>
